<?xml version="1.0" encoding="utf-8"?>
<!-- Generator: Adobe Illustrator 16.0.0, SVG Export Plug-In . SVG Version: 6.00 Build 0)  -->
<svg version="1.2" baseProfile="tiny" id="Layer_1" xmlns="http://www.w3.org/2000/svg" xmlns:xlink="http://www.w3.org/1999/xlink"
	 x="0px" y="0px" width="277.9526px" height="94.4937px" viewBox="0 0 277.9526 94.4937" xml:space="preserve">
<polygon fill="#5E4238" points="91.9722,36.458 84.8306,65.4761 113.8467,94.4937 142.8564,65.4819 135.7246,36.46 "/>
<text transform="matrix(1 0 0 1 0 36.2734)" fill="#EEE3E0" font-family="'OpenSans-Light'" font-size="41">H</text>
<text transform="matrix(1 0 0 1 27.127 36.2734)" fill="#EEE3E0" font-family="'OpenSans-Light'" font-size="41">a</text>
<text transform="matrix(1 0 0 1 47.1221 36.2734)" fill="#EEE3E0" font-family="'OpenSans-Light'" font-size="41">x</text>
<text transform="matrix(1 0 0 1 64.5083 36.2734)" fill="#EEE3E0" font-family="'OpenSans-Light'" font-size="41">e</text>
<text transform="matrix(1 0 0 1 85.5752 36.2734)" fill="#EEE3E0" font-family="'OpenSans-Light'" font-size="41"> </text>
<text transform="matrix(1 0 0 1 94.7905 36.2734)" fill="#EEE3E0" font-family="'OpenSans-Light'" font-size="41"> </text>
<text transform="matrix(1 0 0 1 104.0059 36.2734)" fill="#EEE3E0" font-family="'OpenSans-Light'" font-size="41"> </text>
<text transform="matrix(1 0 0 1 113.2212 36.2734)" fill="#EEE3E0" font-family="'OpenSans-Light'" font-size="41"> </text>
<text transform="matrix(1 0 0 1 122.4365 36.2734)" fill="#EEE3E0" font-family="'OpenSans-Light'" font-size="41"> </text>
<text transform="matrix(1 0 0 1 131.6523 36.2734)" fill="#EEE3E0" font-family="'OpenSans-Light'" font-size="41"> </text>
<text transform="matrix(1 0 0 1 140.8677 36.2734)" fill="#EEE3E0" font-family="'OpenSans-Light'" font-size="41">D</text>
<text transform="matrix(1 0 0 1 167.937 36.2734)" fill="#EEE3E0" font-family="'OpenSans-Light'" font-size="41">e</text>
<text transform="matrix(1 0 0 1 188.6284 36.2734)" fill="#EEE3E0" font-family="'OpenSans-Light'" font-size="41">v</text>
<text transform="matrix(1 0 0 1 205.396 36.2734)" fill="#EEE3E0" font-family="'OpenSans-Light'" font-size="41">e</text>
<text transform="matrix(1 0 0 1 225.7749 36.2734)" fill="#EEE3E0" font-family="'OpenSans-Light'" font-size="41">l</text>
<text transform="matrix(1 0 0 1 233.021 36.2734)" fill="#EEE3E0" font-family="'OpenSans-Light'" font-size="41">o</text>
<text transform="matrix(1 0 0 1 254.9839 36.2734)" fill="#EEE3E0" font-family="'OpenSans-Light'" font-size="41">p</text>
<g>
	<polygon id="path24_2_" fill="#84D0E4" points="135.7178,36.4668 135.7246,36.46 113.8408,0.0059 128.4248,14.5898 135.7246,36.46 
			"/>
	<linearGradient id="path34_1_" gradientUnits="userSpaceOnUse" x1="91.9697" y1="18.231" x2="113.8467" y2="18.231">
		<stop  offset="0" style="stop-color:#08707D"/>
		<stop  offset="0.4926" style="stop-color:#109DB0"/>
	</linearGradient>
	<path id="path34_2_" inkscape:connector-curvature="0" fill="url(#path34_1_)" d="M91.9697,36.4619l0.0088-0.0098L113.8467,0
		L99.2622,14.5845l-7.2837,21.8677"/>
	<g>
		<linearGradient id="SVGID_1_" gradientUnits="userSpaceOnUse" x1="113.8467" y1="35.8857" x2="113.8467" y2="1.1353">
			<stop  offset="0" style="stop-color:#0796A8"/>
			<stop  offset="0.4926" style="stop-color:#10BCD3"/>
		</linearGradient>
		<polygon fill="url(#SVGID_1_)" points="134.6914,35.8857 113.8408,1.1353 93.0015,35.875 		"/>
		<g>
			<polygon fill="none" points="99.7217,14.9463 93.2842,34.2734 112.6089,2.0596 			"/>
			<polygon fill="none" points="127.9653,14.9521 115.0732,2.0601 134.3999,34.2705 			"/>
			<polygon fill="none" points="93.0015,35.875 134.6914,35.8857 113.8408,1.1353 			"/>
			<path fill="#121C1B" d="M135.7036,36.4434l-7.2305-21.8047l-14.6265-14.627V0L99.2139,14.6323l-7.2334,21.8159l-0.0049,0.0078
				l43.7422,0.0107L135.7036,36.4434z M127.9653,14.9521l6.4346,19.3184L115.0732,2.0601L127.9653,14.9521z M99.7217,14.9463
				l12.8872-12.8867L93.2842,34.2734L99.7217,14.9463z M93.0015,35.875l20.8394-34.7397l20.8506,34.7505L93.0015,35.875z"/>
		</g>
	</g>
	<circle fill="#FFFFFF" cx="107.262" cy="28.2705" r="4.1873"/>
	<circle fill="#FFFFFF" cx="120.4197" cy="28.2705" r="4.1873"/>
</g>
</svg>
