<?xml version="1.0" encoding="utf-8"?>
<!-- Generator: Adobe Illustrator 16.0.0, SVG Export Plug-In . SVG Version: 6.00 Build 0)  -->
<!DOCTYPE svg PUBLIC "-//W3C//DTD SVG 1.1//EN" "http://www.w3.org/Graphics/SVG/1.1/DTD/svg11.dtd">
<svg version="1.1" id="Layer_1" xmlns="http://www.w3.org/2000/svg" xmlns:xlink="http://www.w3.org/1999/xlink" x="0px" y="0px"
	 width="277.953px" height="94.494px" viewBox="0 0 277.953 94.494" enable-background="new 0 0 277.953 94.494"
	 xml:space="preserve">
<polygon fill="#5E4238" points="91.972,36.458 84.831,65.476 113.847,94.494 142.856,65.482 135.725,36.46 "/>
<g>
	<path fill="#EEE3E0" d="M25.345,36.273h-2.062V21.879H6.186v14.394H4.144V7.005h2.042v12.993h17.097V7.005h2.062V36.273z"/>
	<path fill="#EEE3E0" d="M43.983,36.273l-0.5-3.443h-0.16c-1.095,1.401-2.219,2.393-3.374,2.973
		c-1.154,0.581-2.519,0.871-4.094,0.871c-2.136,0-3.797-0.547-4.985-1.642c-1.188-1.094-1.782-2.609-1.782-4.544
		c0-2.122,0.884-3.77,2.652-4.945c1.769-1.174,4.328-1.795,7.678-1.862l4.144-0.12V22.12c0-2.068-0.42-3.63-1.261-4.685
		c-0.841-1.054-2.196-1.582-4.064-1.582c-2.016,0-4.104,0.561-6.266,1.682l-0.741-1.722c2.389-1.121,4.751-1.682,7.087-1.682
		c2.389,0,4.174,0.621,5.355,1.862c1.182,1.241,1.772,3.177,1.772,5.806v14.474H43.983z M35.976,34.872
		c2.322,0,4.154-0.664,5.495-1.992c1.342-1.328,2.012-3.173,2.012-5.535v-2.142l-3.804,0.16c-3.057,0.147-5.235,0.624-6.537,1.431
		c-1.301,0.808-1.952,2.066-1.952,3.774c0,1.361,0.417,2.419,1.251,3.173C33.276,34.495,34.454,34.872,35.976,34.872z"/>
	<path fill="#EEE3E0" d="M56.111,25.083l-7.587-10.57h2.282l6.486,9.169l6.426-9.169H65.9l-7.467,10.57l8.008,11.191h-2.302
		l-6.847-9.709l-6.887,9.709h-2.182L56.111,25.083z"/>
	<path fill="#EEE3E0" d="M76.94,36.674c-3.163,0-5.629-0.974-7.397-2.923c-1.769-1.948-2.653-4.678-2.653-8.188
		c0-3.47,0.854-6.249,2.563-8.338c1.708-2.088,4.01-3.133,6.907-3.133c2.563,0,4.584,0.895,6.066,2.683
		c1.481,1.789,2.222,4.218,2.222,7.287v1.602H68.973c0.026,2.99,0.724,5.272,2.092,6.847c1.368,1.575,3.326,2.362,5.875,2.362
		c1.241,0,2.333-0.086,3.273-0.26c0.941-0.173,2.132-0.547,3.574-1.121v1.802c-1.228,0.534-2.362,0.898-3.403,1.091
		S78.195,36.674,76.94,36.674z M76.36,15.854c-2.096,0-3.777,0.69-5.045,2.072c-1.268,1.381-2.009,3.373-2.222,5.976h13.453
		c0-2.522-0.547-4.494-1.642-5.916C79.81,16.564,78.295,15.854,76.36,15.854z"/>
	<path fill="#EEE3E0" d="M167.232,21.359c0,4.912-1.287,8.625-3.863,11.141s-6.359,3.773-11.35,3.773h-7.007V7.005h7.908
		c4.67,0,8.225,1.221,10.66,3.664S167.232,16.674,167.232,21.359z M165.011,21.439c0-4.19-1.064-7.344-3.193-9.459
		c-2.129-2.115-5.256-3.173-9.379-3.173h-5.385v25.665h4.844C160.64,34.472,165.011,30.127,165.011,21.439z"/>
	<path fill="#EEE3E0" d="M180.369,36.674c-3.162,0-5.629-0.974-7.396-2.923c-1.768-1.948-2.652-4.678-2.652-8.188
		c0-3.47,0.854-6.249,2.563-8.338c1.709-2.088,4.01-3.133,6.906-3.133c2.563,0,4.584,0.895,6.066,2.683
		c1.48,1.789,2.223,4.218,2.223,7.287v1.602h-15.676c0.027,2.99,0.725,5.272,2.092,6.847c1.367,1.575,3.326,2.362,5.875,2.362
		c1.242,0,2.334-0.086,3.273-0.26c0.941-0.173,2.133-0.547,3.574-1.121v1.802c-1.229,0.534-2.363,0.898-3.404,1.091
		S181.625,36.674,180.369,36.674z M179.789,15.854c-2.096,0-3.777,0.69-5.045,2.072c-1.268,1.381-2.008,3.373-2.223,5.976h13.453
		c0-2.522-0.547-4.494-1.641-5.916C183.24,16.564,181.724,15.854,179.789,15.854z"/>
	<path fill="#EEE3E0" d="M197.037,36.273l-8.408-21.761h2.041l5.627,14.794c0.746,1.896,1.307,3.55,1.682,4.965h0.119
		c0.547-1.815,1.107-3.483,1.682-5.005l5.625-14.754h2.043l-8.408,21.761H197.037z"/>
	<path fill="#EEE3E0" d="M217.828,36.674c-3.162,0-5.629-0.974-7.396-2.923c-1.768-1.948-2.652-4.678-2.652-8.188
		c0-3.47,0.854-6.249,2.563-8.338c1.709-2.088,4.01-3.133,6.906-3.133c2.563,0,4.584,0.895,6.066,2.683
		c1.48,1.789,2.223,4.218,2.223,7.287v1.602h-15.676c0.027,2.99,0.725,5.272,2.092,6.847c1.367,1.575,3.326,2.362,5.875,2.362
		c1.242,0,2.334-0.086,3.273-0.26c0.941-0.173,2.133-0.547,3.574-1.121v1.802c-1.229,0.534-2.363,0.898-3.404,1.091
		S219.083,36.674,217.828,36.674z M217.248,15.854c-2.096,0-3.777,0.69-5.045,2.072c-1.268,1.381-2.008,3.373-2.223,5.976h13.453
		c0-2.522-0.547-4.494-1.641-5.916C220.699,16.564,219.183,15.854,217.248,15.854z"/>
	<path fill="#EEE3E0" d="M231.4,36.273h-1.982V5.123h1.982V36.273z"/>
	<path fill="#EEE3E0" d="M254.662,25.363c0,3.55-0.859,6.323-2.582,8.318c-1.721,1.996-4.098,2.993-7.127,2.993
		c-1.908,0-3.59-0.461-5.045-1.381c-1.455-0.921-2.568-2.242-3.344-3.964c-0.773-1.722-1.16-3.71-1.16-5.966
		c0-3.55,0.861-6.316,2.582-8.298c1.723-1.981,4.084-2.973,7.088-2.973c2.988,0,5.334,1.004,7.037,3.013
		C253.812,19.114,254.662,21.866,254.662,25.363z M237.486,25.363c0,2.99,0.656,5.322,1.973,6.997
		c1.314,1.675,3.172,2.513,5.574,2.513s4.262-0.837,5.576-2.513c1.314-1.674,1.971-4.007,1.971-6.997
		c0-3.003-0.664-5.332-1.99-6.987c-1.328-1.655-3.193-2.482-5.596-2.482s-4.254,0.824-5.557,2.473
		C238.136,20.015,237.486,22.347,237.486,25.363z"/>
	<path fill="#EEE3E0" d="M267.937,36.674c-3.352,0-5.793-1.254-7.328-3.764h-0.141l0.061,1.682c0.053,0.988,0.08,2.068,0.08,3.243
		v8.288h-1.982V14.512h1.682l0.381,3.103h0.121c1.494-2.349,3.883-3.523,7.166-3.523c2.936,0,5.176,0.964,6.717,2.893
		c1.541,1.929,2.313,4.735,2.313,8.418c0,3.577-0.811,6.35-2.434,8.318C272.951,35.69,270.74,36.674,267.937,36.674z
		 M267.896,34.912c2.229,0,3.953-0.827,5.176-2.482c1.221-1.655,1.832-3.97,1.832-6.947c0-6.393-2.311-9.589-6.928-9.589
		c-2.535,0-4.398,0.698-5.586,2.092c-1.188,1.395-1.781,3.667-1.781,6.817v0.641c0,3.403,0.57,5.833,1.711,7.287
		C263.462,34.185,265.32,34.912,267.896,34.912z"/>
</g>
<g>
	<g id="path24_2_">
		<polygon fill="#84D0E4" points="135.718,36.467 135.725,36.46 113.841,0.006 128.425,14.59 135.725,36.46 		"/>
	</g>
	<linearGradient id="path34_1_" gradientUnits="userSpaceOnUse" x1="91.9697" y1="18.231" x2="113.8467" y2="18.231">
		<stop  offset="0" style="stop-color:#08707D"/>
		<stop  offset="0.4926" style="stop-color:#109DB0"/>
	</linearGradient>
	<path id="path34_2_" fill="url(#path34_1_)" d="M91.97,36.462l0.009-0.01L113.847,0
		L99.262,14.584l-7.284,21.868"/>
	<g>
		<linearGradient id="SVGID_1_" gradientUnits="userSpaceOnUse" x1="113.8467" y1="35.8857" x2="113.8467" y2="1.1353">
			<stop  offset="0" style="stop-color:#0796A8"/>
			<stop  offset="0.4926" style="stop-color:#10BCD3"/>
		</linearGradient>
		<polygon fill="url(#SVGID_1_)" points="134.691,35.886 113.841,1.135 93.001,35.875 		"/>
		<g>
			<polygon fill="none" points="99.722,14.946 93.284,34.273 112.609,2.06 			"/>
			<polygon fill="none" points="127.965,14.952 115.073,2.06 134.4,34.271 			"/>
			<polygon fill="none" points="93.001,35.875 134.691,35.886 113.841,1.135 			"/>
			<path fill="#121C1B" d="M135.704,36.443l-7.23-21.805L113.847,0.012V0L99.214,14.632L91.98,36.448l-0.005,0.008l43.742,0.011
				L135.704,36.443z M127.965,14.952l6.435,19.318L115.073,2.06L127.965,14.952z M99.722,14.946L112.609,2.06L93.284,34.273
				L99.722,14.946z M93.001,35.875l20.839-34.74l20.851,34.75L93.001,35.875z"/>
		</g>
	</g>
	<circle fill="#FFFFFF" cx="107.262" cy="28.271" r="4.187"/>
	<circle fill="#FFFFFF" cx="120.42" cy="28.271" r="4.187"/>
</g>
</svg>