<?xml version="1.0" encoding="utf-8"?>
<!-- Generator: Adobe Illustrator 16.0.0, SVG Export Plug-In . SVG Version: 6.00 Build 0)  -->
<!DOCTYPE svg PUBLIC "-//W3C//DTD SVG 1.1//EN" "http://www.w3.org/Graphics/SVG/1.1/DTD/svg11.dtd">
<svg version="1.1" xmlns="http://www.w3.org/2000/svg" xmlns:xlink="http://www.w3.org/1999/xlink" x="0px" y="0px"
	 width="264.2539px" height="55.8813px" viewBox="0 0 264.2539 55.8813" enable-background="new 0 0 264.2539 55.8813"
	 xml:space="preserve">
<g id="Layer_2">
</g>
<g id="Layer_1">
</g>
<g id="Layer_3">
	<g>
		<path fill="#FFFFFF" d="M22.1016,44.8706V31.0972H5.6655v13.7734H3.6836v-28.708h1.9819v13.1328h16.436V16.1626h1.9619v28.708
			H22.1016z"/>
		<path fill="#FFFFFF" d="M40.8633,44.8706v-4.104h-0.0801c-0.6543,1.4014-1.605,2.5195-2.8525,3.353
			c-1.2485,0.834-2.6328,1.251-4.1543,1.251c-1.9487,0-3.4902-0.5469-4.6245-1.6411c-1.1348-1.0942-1.7017-2.4756-1.7017-4.144
			c0-3.5767,2.3687-5.7388,7.1069-6.4863l6.3062-0.9409c0-4.4043-1.6553-6.6064-4.9648-6.6064
			c-2.2559,0-4.4512,0.9077-6.5864,2.7227v-2.2222c0.7607-0.6006,1.7915-1.1143,3.0933-1.5415
			c1.3008-0.4268,2.5254-0.6406,3.6733-0.6406c2.1084,0,3.7402,0.6543,4.895,1.9619c1.1538,1.3081,1.7314,3.21,1.7314,5.7056v13.333
			H40.8633z M35.2178,34.6606c-2.1489,0.3071-3.6572,0.8042-4.5244,1.4912c-0.8677,0.688-1.3013,1.8057-1.3013,3.3535
			c0,1.2148,0.4033,2.2158,1.2114,3.0029c0.8071,0.7876,1.9316,1.1812,3.373,1.1812c1.9751,0,3.6167-0.731,4.9248-2.1919
			c1.3076-1.4619,1.9619-3.3467,1.9619-5.6558v-2.002L35.2178,34.6606z"/>
		<path fill="#FFFFFF" d="M53.397,34.8208l6.6865,10.0498h-2.3423l-5.4053-8.6484h-0.0801l-0.7207,1.1411
			c-0.0938,0.1602-0.207,0.3403-0.3403,0.5405l-4.5244,6.9668h-2.2422l6.8467-10.0098l-6.7266-10.4902h2.1621l4.5645,7.3472
			c0.5869,0.9478,0.9409,1.5352,1.061,1.7617h0.0801l1.021-1.6816l4.7646-7.4272h2.1621L53.397,34.8208z"/>
		<path fill="#FFFFFF" d="M62.21,34.7007c0,2.8164,0.6504,5.0186,1.9521,6.6064c1.3008,1.5884,3.0859,2.3823,5.355,2.3823
			c2.2954,0,4.5376-0.8472,6.7266-2.5425v1.9619c-2.1221,1.5083-4.4912,2.2617-7.1069,2.2617c-2.6426,0-4.7783-0.9468-6.4063-2.8423
			c-1.6284-1.895-2.4424-4.5708-2.4424-8.0278c0-2.9893,0.8506-5.5083,2.5527-7.5576c1.7012-2.0483,3.9136-3.0728,6.6362-3.0728
			c2.5488,0,4.5044,0.8945,5.8657,2.6826c1.3613,1.7886,2.042,4.231,2.042,7.3271v0.8208H62.21z M75.4629,33.019
			c-0.0801-2.3623-0.6475-4.1973-1.7017-5.5054c-1.0547-1.3076-2.5093-1.9619-4.3643-1.9619c-1.9219,0-3.5132,0.644-4.7749,1.9321
			c-1.2607,1.2881-2.0386,3.1328-2.332,5.5352H75.4629z"/>
		<path fill="#FFFFFF" d="M140.2109,44.8706v-28.708h7.187c4.7646,0,8.3882,1.188,10.8706,3.5635
			c2.4824,2.376,3.7236,5.8394,3.7236,10.3901c0,4.3779-1.3311,7.9312-3.9941,10.6606c-2.6621,2.7295-6.3359,4.0938-11.0205,4.0938
			H140.2109z M142.1929,17.9844v25.0845h4.5044c4.2573,0,7.5273-1.104,9.8096-3.3135c2.2822-2.2085,3.4229-5.395,3.4229-9.5591
			c0-8.1411-4.2773-12.2119-12.832-12.2119H142.1929z"/>
		<path fill="#FFFFFF" d="M166.0654,34.7007c0,2.8164,0.6504,5.0186,1.9521,6.6064c1.3008,1.5884,3.0859,2.3823,5.3555,2.3823
			c2.2949,0,4.5371-0.8472,6.7266-2.5425v1.9619c-2.123,1.5083-4.4922,2.2617-7.1074,2.2617c-2.6426,0-4.7783-0.9468-6.4063-2.8423
			c-1.6289-1.895-2.4424-4.5708-2.4424-8.0278c0-2.9893,0.8506-5.5083,2.5527-7.5576c1.7012-2.0483,3.9131-3.0728,6.6357-3.0728
			c2.5498,0,4.5049,0.8945,5.8662,2.6826c1.3613,1.7886,2.042,4.231,2.042,7.3271v0.8208H166.0654z M179.3184,33.019
			c-0.0801-2.3623-0.6475-4.1973-1.7012-5.5054c-1.0547-1.3076-2.5098-1.9619-4.3652-1.9619c-1.9219,0-3.5127,0.644-4.7744,1.9321
			c-1.2607,1.2881-2.0391,3.1328-2.332,5.5352H179.3184z"/>
		<path fill="#FFFFFF" d="M190.7852,44.8706h-1.6816l-7.9277-20.5h2.0625l6.1055,16.3159c0.293,0.7876,0.5,1.5015,0.6211,2.1421
			h0.0801c0.1729-0.8408,0.3662-1.5278,0.5801-2.062l6.3066-16.396h2.002L190.7852,44.8706z"/>
		<path fill="#FFFFFF" d="M200.5674,34.7007c0,2.8164,0.6504,5.0186,1.9521,6.6064c1.3008,1.5884,3.0859,2.3823,5.3555,2.3823
			c2.2949,0,4.5371-0.8472,6.7266-2.5425v1.9619c-2.123,1.5083-4.4922,2.2617-7.1074,2.2617c-2.6426,0-4.7783-0.9468-6.4063-2.8423
			c-1.6289-1.895-2.4424-4.5708-2.4424-8.0278c0-2.9893,0.8506-5.5083,2.5527-7.5576c1.7012-2.0483,3.9131-3.0728,6.6357-3.0728
			c2.5498,0,4.5049,0.8945,5.8662,2.6826c1.3613,1.7886,2.042,4.231,2.042,7.3271v0.8208H200.5674z M213.8203,33.019
			c-0.0801-2.3623-0.6475-4.1973-1.7012-5.5054c-1.0547-1.3076-2.5098-1.9619-4.3652-1.9619c-1.9219,0-3.5127,0.644-4.7744,1.9321
			c-1.2607,1.2881-2.0391,3.1328-2.332,5.5352H213.8203z"/>
		<path fill="#FFFFFF" d="M218.7324,44.8706V14.521h1.8418v30.3496H218.7324z"/>
		<path fill="#FFFFFF" d="M233.29,45.3706c-2.9902,0-5.3555-0.9834-7.0977-2.9521c-1.7412-1.9688-2.6123-4.5278-2.6123-7.6777
			c0-3.4033,0.9111-6.0659,2.7324-7.9878c1.8223-1.9219,4.2207-2.8828,7.1973-2.8828c2.9229,0,5.2314,0.9546,6.9268,2.8628
			c1.6943,1.9087,2.543,4.5513,2.543,7.9277c0,3.1899-0.8652,5.7725-2.5928,7.7476C238.6582,44.3838,236.292,45.3706,233.29,45.3706
			z M233.4297,25.5518c-2.416,0-4.3408,0.8145-5.7754,2.4424c-1.4355,1.6284-2.1523,3.8906-2.1523,6.7866
			c0,2.6826,0.7002,4.8384,2.1025,6.4663c1.4004,1.6284,3.3154,2.4424,5.7451,2.4424c2.4688,0,4.3711-0.8008,5.7061-2.4023
			c1.334-1.6016,2.002-3.8237,2.002-6.6665c0-2.9229-0.665-5.165-1.9922-6.7266C237.7373,26.3325,235.8584,25.5518,233.4297,25.5518
			z"/>
		<path fill="#FFFFFF" d="M247.9316,41.2271h-0.0801v13.0732h-1.8418V24.3706h1.8418v4.2241h0.0801
			c0.7334-1.5078,1.7852-2.6724,3.1533-3.4937c1.3672-0.8203,2.8721-1.231,4.5146-1.231c2.6016,0,4.6338,0.8979,6.0957,2.6929
			c1.4609,1.7949,2.1914,4.2339,2.1914,7.3169c0,3.4302-0.8369,6.2031-2.5117,8.3179c-1.6758,2.1157-3.8877,3.1729-6.6367,3.1729
			C251.668,45.3706,249.3994,43.9897,247.9316,41.2271z M247.8516,33.5996v2.5825c0,2.0557,0.6475,3.8208,1.9414,5.2949
			c1.2949,1.4751,2.9961,2.2124,5.1055,2.2124c2.0947,0,3.7969-0.8975,5.1055-2.6929c1.3076-1.7944,1.9609-4.1538,1.9609-7.0767
			c0-2.5625-0.5996-4.5977-1.8008-6.106c-1.2012-1.5078-2.8027-2.2622-4.8047-2.2622c-2.3896,0-4.2383,0.8008-5.5459,2.4023
			C248.5049,29.5557,247.8516,31.4375,247.8516,33.5996z"/>
	</g>
	<g>
		<g>
			<path fill="#FFFFFF" d="M82.1128,44.5332c-0.0884,0-0.1699-0.0464-0.2148-0.1226c-0.0454-0.0757-0.0469-0.1699-0.0044-0.2471
				l8.6758-26.1724c0.0122-0.0371,0.0332-0.0708,0.0605-0.0981l17.5757-17.5752c0.0479-0.0479,0.1118-0.0732,0.1768-0.0732
				c0.0322,0,0.0649,0.0063,0.0957,0.019c0.0537,0.0225,0.0967,0.062,0.1235,0.1108l17.5254,17.5254
				c0.0273,0.0273,0.0483,0.061,0.0605,0.0981l8.6846,26.1899c0.0464,0.0771,0.0449,0.1626,0.0005,0.2407
				c-0.0444,0.0786-0.1304,0.1162-0.2207,0.1162L82.1128,44.5332z M132.9775,43.3477L108.375,2.3438L83.7866,43.334
				L132.9775,43.3477z M84.6416,39.5801l20.9951-34.9995l-14.001,14.001L84.6416,39.5801z M132.1128,39.5791l-6.9907-20.9897
				L111.1152,4.582L132.1128,39.5791z"/>
			<path fill="#FFFFFF" d="M108.3823,0.4946v0.0142l17.5679,17.5679l8.6846,26.1899l0.0171,0.0283l-52.5391-0.0117l0.0059-0.0107
				l8.688-26.2026L108.3823,0.4946 M133.4189,43.5977L108.375,1.8579L83.3452,43.584L133.4189,43.5977 M83.6851,41.6602
				l23.2104-38.6914L91.417,18.4463L83.6851,41.6602 M133.0688,41.6582l-7.728-23.2041L109.856,2.9692L133.0688,41.6582 M108.374,0
				c-0.127,0-0.2515,0.0474-0.3452,0.1411L90.4531,17.7163c-0.0552,0.0552-0.0967,0.1221-0.1211,0.1963L81.647,44.1069
				c-0.0493,0.1392-0.0376,0.2979,0.0386,0.4263c0.0903,0.1514,0.2505,0.25,0.4272,0.25l52.5391,0.0117
				c0.1802,0,0.3467-0.0972,0.4355-0.2539c0.0845-0.1499,0.0859-0.3315,0.0054-0.4819l-8.668-26.1396
				c-0.0244-0.0742-0.0659-0.1411-0.1211-0.1963L108.7729,0.1924c-0.0518-0.0664-0.1196-0.1196-0.1992-0.1528
				C108.5093,0.0132,108.4414,0,108.374,0L108.374,0z M84.228,43.084l24.147-40.2544l24.1606,40.2681L84.228,43.084L84.228,43.084z
				 M91.854,18.7163l12.5244-12.5234L85.5977,37.4995L91.854,18.7163L91.854,18.7163z M131.1567,37.4995L112.374,6.1948
				l12.5298,12.5293L131.1567,37.4995L131.1567,37.4995z"/>
		</g>
		<rect x="93.5181" y="34.4141" fill="#F6871F" width="16.458" height="1.8125"/>
		<rect x="112.7896" y="34.4141" fill="#F6871F" width="10.1865" height="1.8125"/>
		<rect x="91.4761" y="38.4355" fill="#F6871F" width="8.5625" height="1.8125"/>
		<rect x="102.8521" y="38.4355" fill="#F6871F" width="13.9004" height="1.8125"/>
		<rect x="119.5659" y="38.4355" fill="#F6871F" width="5.7227" height="1.8125"/>
	</g>
	<g>
	</g>
	<g>
	</g>
	<g>
	</g>
	<g>
	</g>
	<g>
	</g>
	<g>
	</g>
</g>
</svg>
