<?xml version="1.0" encoding="utf-8"?>
<!-- Generator: Adobe Illustrator 16.0.0, SVG Export Plug-In . SVG Version: 6.00 Build 0)  -->
<!DOCTYPE svg PUBLIC "-//W3C//DTD SVG 1.1//EN" "http://www.w3.org/Graphics/SVG/1.1/DTD/svg11.dtd">
<svg version="1.1" id="Layer_1" xmlns="http://www.w3.org/2000/svg" xmlns:xlink="http://www.w3.org/1999/xlink" x="0px" y="0px"
	 width="96.433px" height="96.434px" viewBox="0 0 96.433 96.434" enable-background="new 0 0 96.433 96.434" xml:space="preserve">
<g opacity="0.5">
	<g>
		<g>
			<g>
				<g>
					<polygon fill="#FFFFFF" points="95.932,85.318 96.375,85.359 96.433,84.216 95.988,84.216 					"/>
					<path fill="#FFFFFF" d="M95.66,86.935l0.432,0.103c0,0,0.018-0.069,0.044-0.173c0.03-0.103,0.062-0.243,0.079-0.385
						c0.043-0.283,0.086-0.566,0.086-0.566l-0.44-0.062c0,0-0.042,0.273-0.083,0.545c-0.016,0.137-0.046,0.271-0.075,0.371
						C95.677,86.869,95.66,86.935,95.66,86.935z"/>
					<path fill="#FFFFFF" d="M95.171,88.501l0.414,0.162c0,0,0.399-1.073,0.367-1.083l-0.427-0.123
						C95.556,87.467,95.171,88.501,95.171,88.501z"/>
					<path fill="#FFFFFF" d="M94.471,89.985l0.387,0.218c0.03,0.017,0.513-1.022,0.513-1.022L94.966,89
						C94.966,89,94.501,90,94.471,89.985z"/>
					<path fill="#FFFFFF" d="M93.563,91.351l0.353,0.27c0,0,0.171-0.229,0.343-0.458c0.172-0.229,0.309-0.481,0.309-0.481
						l-0.377-0.236c0,0-0.131,0.243-0.297,0.464C93.729,91.13,93.563,91.351,93.563,91.351z"/>
					<path fill="#FFFFFF" d="M92.486,92.589l0.312,0.316c0,0,0.198-0.207,0.39-0.418c0.192-0.211,0.385-0.423,0.385-0.423
						l-0.34-0.286c0,0-0.186,0.204-0.371,0.408C92.676,92.39,92.486,92.589,92.486,92.589z"/>
					<path fill="#FFFFFF" d="M91.234,93.65l0.266,0.356c0,0,0.229-0.171,0.458-0.343c0.213-0.191,0.426-0.382,0.426-0.382
						l-0.297-0.33c0,0-0.205,0.185-0.41,0.369C91.456,93.485,91.234,93.65,91.234,93.65z"/>
				</g>
			</g>
			<g>
				<g>
					<polygon fill="#FFFFFF" points="89.86,94.547 90.073,94.937 91.051,94.342 90.802,93.974 					"/>
					<path fill="#FFFFFF" d="M88.364,95.221l0.157,0.416c0,0,0.272-0.09,0.534-0.206c0.258-0.124,0.516-0.248,0.516-0.248
						l-0.195-0.399c0,0-0.249,0.12-0.497,0.24C88.626,95.135,88.364,95.221,88.364,95.221z"/>
					<path fill="#FFFFFF" d="M86.794,95.695l0.097,0.434c0,0,1.113-0.271,1.104-0.3l-0.138-0.423
						C87.866,95.436,86.794,95.696,86.794,95.695z"/>
					<path fill="#FFFFFF" d="M85.171,95.939l0.036,0.443c0.003,0.034,1.134-0.146,1.134-0.146l-0.077-0.438
						C86.264,95.798,85.175,95.972,85.171,95.939z"/>
					<path fill="#FFFFFF" d="M83.517,95.987v0.444c0,0,0.281,0,0.562,0c0.281,0,0.569-0.021,0.569-0.021l-0.016-0.444
						c0,0-0.272,0.021-0.554,0.021C83.798,95.987,83.517,95.987,83.517,95.987z"/>
					<rect x="81.842" y="95.987" fill="#FFFFFF" width="1.125" height="0.444"/>
					<rect x="80.167" y="95.987" fill="#FFFFFF" width="1.125" height="0.444"/>
				</g>
			</g>
			<g>
				<g>
					<rect x="78.493" y="95.987" fill="#FFFFFF" width="1.125" height="0.444"/>
					<rect x="76.818" y="95.987" fill="#FFFFFF" width="1.125" height="0.444"/>
					<rect x="75.144" y="95.987" fill="#FFFFFF" width="1.125" height="0.444"/>
					<rect x="73.469" y="95.987" fill="#FFFFFF" width="1.124" height="0.444"/>
					<rect x="71.795" y="95.987" fill="#FFFFFF" width="1.124" height="0.444"/>
					<rect x="70.12" y="95.987" fill="#FFFFFF" width="1.124" height="0.444"/>
					<rect x="68.446" y="95.987" fill="#FFFFFF" width="1.124" height="0.444"/>
				</g>
			</g>
			<g>
				<g>
					<rect x="66.771" y="95.987" fill="#FFFFFF" width="1.125" height="0.444"/>
					<rect x="65.097" y="95.987" fill="#FFFFFF" width="1.124" height="0.444"/>
					<rect x="63.422" y="95.987" fill="#FFFFFF" width="1.125" height="0.444"/>
					<rect x="61.748" y="95.987" fill="#FFFFFF" width="1.124" height="0.444"/>
					<rect x="60.073" y="95.987" fill="#FFFFFF" width="1.125" height="0.444"/>
					<rect x="58.398" y="95.987" fill="#FFFFFF" width="1.125" height="0.444"/>
					<rect x="56.724" y="95.987" fill="#FFFFFF" width="1.124" height="0.444"/>
				</g>
			</g>
			<g>
				<g>
					<rect x="55.049" y="95.987" fill="#FFFFFF" width="1.124" height="0.444"/>
					<rect x="53.375" y="95.987" fill="#FFFFFF" width="1.125" height="0.444"/>
					<rect x="51.7" y="95.987" fill="#FFFFFF" width="1.125" height="0.444"/>
					<rect x="50.025" y="95.987" fill="#FFFFFF" width="1.125" height="0.444"/>
					<rect x="48.351" y="95.987" fill="#FFFFFF" width="1.125" height="0.444"/>
					<rect x="46.676" y="95.987" fill="#FFFFFF" width="1.125" height="0.444"/>
					<rect x="45.002" y="95.987" fill="#FFFFFF" width="1.125" height="0.444"/>
				</g>
			</g>
			<g>
				<g>
					<rect x="43.327" y="95.987" fill="#FFFFFF" width="1.125" height="0.444"/>
					<rect x="41.653" y="95.987" fill="#FFFFFF" width="1.125" height="0.444"/>
					<rect x="39.979" y="95.987" fill="#FFFFFF" width="1.124" height="0.444"/>
					<rect x="38.304" y="95.987" fill="#FFFFFF" width="1.124" height="0.444"/>
					<rect x="36.629" y="95.987" fill="#FFFFFF" width="1.124" height="0.444"/>
					<rect x="34.955" y="95.987" fill="#FFFFFF" width="1.124" height="0.444"/>
					<rect x="33.28" y="95.987" fill="#FFFFFF" width="1.124" height="0.444"/>
				</g>
			</g>
			<g>
				<g>
					<rect x="31.605" y="95.987" fill="#FFFFFF" width="1.125" height="0.444"/>
					<rect x="29.931" y="95.987" fill="#FFFFFF" width="1.125" height="0.444"/>
					<rect x="28.256" y="95.987" fill="#FFFFFF" width="1.125" height="0.444"/>
					<rect x="26.582" y="95.987" fill="#FFFFFF" width="1.124" height="0.444"/>
					<rect x="24.907" y="95.987" fill="#FFFFFF" width="1.125" height="0.444"/>
					<rect x="23.232" y="95.987" fill="#FFFFFF" width="1.125" height="0.444"/>
					<rect x="21.559" y="95.987" fill="#FFFFFF" width="1.124" height="0.444"/>
				</g>
			</g>
			<g>
				<g>
					<rect x="19.884" y="95.987" fill="#FFFFFF" width="1.124" height="0.444"/>
					<rect x="18.209" y="95.987" fill="#FFFFFF" width="1.125" height="0.444"/>
					<rect x="16.535" y="95.987" fill="#FFFFFF" width="1.125" height="0.444"/>
					<rect x="14.86" y="95.987" fill="#FFFFFF" width="1.125" height="0.444"/>
					<rect x="13.186" y="95.987" fill="#FFFFFF" width="1.125" height="0.444"/>
					<path fill="#FFFFFF" d="M11.525,95.952l-0.026,0.444c0,0,0.286,0.014,0.571,0.029c0.286,0.014,0.565,0.007,0.564,0.007v-0.444
						c0,0-0.284,0.007-0.559-0.007S11.525,95.952,11.525,95.952z"/>
					<polygon fill="#FFFFFF" points="9.896,95.756 9.809,96.192 10.94,96.365 10.986,95.923 					"/>
				</g>
			</g>
			<g>
				<g>
					<path fill="#FFFFFF" d="M8.316,95.312l-0.147,0.419c0,0,0.265,0.11,0.541,0.184c0.277,0.072,0.555,0.143,0.555,0.143
						l0.107-0.431c0,0-0.267-0.069-0.534-0.137C8.572,95.419,8.316,95.312,8.316,95.312z"/>
					<path fill="#FFFFFF" d="M6.809,94.665l-0.205,0.395c0,0,1.025,0.511,1.039,0.479l0.167-0.412
						C7.797,95.158,6.809,94.665,6.809,94.665z"/>
					<path fill="#FFFFFF" d="M5.41,93.809l-0.257,0.362c-0.018,0.026,0.962,0.617,0.962,0.617l0.223-0.384
						C6.338,94.403,5.393,93.834,5.41,93.809z"/>
					<path fill="#FFFFFF" d="M4.143,92.766l-0.305,0.323c0,0,0.847,0.77,0.867,0.746l0.273-0.35
						C4.958,93.508,4.143,92.766,4.143,92.766z"/>
					<path fill="#FFFFFF" d="M3.028,91.563L2.681,91.84c-0.026,0.021,0.756,0.858,0.756,0.858l0.319-0.309
						C3.757,92.39,3.002,91.583,3.028,91.563z"/>
					<path fill="#FFFFFF" d="M2.099,90.21l-0.382,0.227c0,0,0.148,0.245,0.297,0.489c0.149,0.244,0.331,0.466,0.331,0.466
						l0.359-0.262c0,0-0.176-0.213-0.32-0.449C2.242,90.445,2.099,90.21,2.099,90.21z"/>
					<polygon fill="#FFFFFF" points="1.353,88.749 0.942,88.92 1.434,89.954 1.826,89.745 					"/>
				</g>
			</g>
			<g>
				<g>
					<path fill="#FFFFFF" d="M0.839,87.19l-0.43,0.112c0,0,0.072,0.277,0.144,0.554c0.098,0.269,0.196,0.538,0.196,0.538
						l0.417-0.152c0,0-0.095-0.259-0.19-0.518C0.908,87.458,0.839,87.19,0.839,87.19z"/>
					<path fill="#FFFFFF" d="M0.53,85.579L0.089,85.63c0,0,0.043,0.283,0.086,0.565C0.217,86.479,0.27,86.76,0.27,86.76l0.435-0.092
						c0,0-0.05-0.271-0.091-0.543C0.572,85.852,0.53,85.579,0.53,85.579z"/>
					<path fill="#FFFFFF" d="M0.445,83.935H0.001c0,0-0.006,0.279,0.014,0.567c0.014,0.286,0.029,0.571,0.029,0.571l0.443-0.031
						c0,0-0.014-0.275-0.028-0.551C0.439,84.218,0.445,83.935,0.445,83.935z"/>
					<rect x="0.001" y="82.26" fill="#FFFFFF" width="0.444" height="1.124"/>
					<rect x="0.001" y="80.585" fill="#FFFFFF" width="0.444" height="1.125"/>
					<rect x="0.001" y="78.911" fill="#FFFFFF" width="0.444" height="1.124"/>
					<rect x="0.001" y="77.236" fill="#FFFFFF" width="0.444" height="1.124"/>
				</g>
			</g>
			<g>
				<g>
					<rect x="0.001" y="75.562" fill="#FFFFFF" width="0.444" height="1.125"/>
					<rect x="0.001" y="73.887" fill="#FFFFFF" width="0.444" height="1.124"/>
					<rect x="0.001" y="72.212" fill="#FFFFFF" width="0.444" height="1.125"/>
					<rect x="0.001" y="70.538" fill="#FFFFFF" width="0.444" height="1.124"/>
					<rect x="0.001" y="68.863" fill="#FFFFFF" width="0.444" height="1.125"/>
					<rect x="0.001" y="67.188" fill="#FFFFFF" width="0.444" height="1.125"/>
					<rect x="0.001" y="65.515" fill="#FFFFFF" width="0.444" height="1.124"/>
				</g>
			</g>
			<g>
				<g>
					<rect x="0.001" y="63.84" fill="#FFFFFF" width="0.444" height="1.124"/>
					<rect x="0.001" y="62.165" fill="#FFFFFF" width="0.444" height="1.125"/>
					<rect x="0.001" y="60.491" fill="#FFFFFF" width="0.444" height="1.125"/>
					<rect x="0.001" y="58.816" fill="#FFFFFF" width="0.444" height="1.125"/>
					<rect x="0.001" y="57.142" fill="#FFFFFF" width="0.444" height="1.125"/>
					<rect x="0.001" y="55.467" fill="#FFFFFF" width="0.444" height="1.125"/>
					<rect x="0.001" y="53.792" fill="#FFFFFF" width="0.444" height="1.125"/>
				</g>
			</g>
			<g>
				<g>
					<rect x="0.001" y="52.118" fill="#FFFFFF" width="0.444" height="1.125"/>
					<rect x="0.001" y="50.443" fill="#FFFFFF" width="0.444" height="1.125"/>
					<rect x="0.001" y="48.769" fill="#FFFFFF" width="0.444" height="1.124"/>
					<rect x="0.001" y="47.094" fill="#FFFFFF" width="0.444" height="1.124"/>
					<rect x="0.001" y="45.42" fill="#FFFFFF" width="0.444" height="1.124"/>
					<rect x="0.001" y="43.745" fill="#FFFFFF" width="0.444" height="1.124"/>
					<rect x="0.001" y="42.071" fill="#FFFFFF" width="0.444" height="1.124"/>
				</g>
			</g>
			<g>
				<g>
					<rect x="0.001" y="40.396" fill="#FFFFFF" width="0.444" height="1.125"/>
					<rect x="0.001" y="38.722" fill="#FFFFFF" width="0.444" height="1.124"/>
					<rect x="0.001" y="37.047" fill="#FFFFFF" width="0.444" height="1.125"/>
					<rect x="0.001" y="35.373" fill="#FFFFFF" width="0.444" height="1.124"/>
					<rect x="0.001" y="33.698" fill="#FFFFFF" width="0.444" height="1.125"/>
					<rect x="0.001" y="32.023" fill="#FFFFFF" width="0.444" height="1.125"/>
					<rect x="0.001" y="30.349" fill="#FFFFFF" width="0.444" height="1.124"/>
				</g>
			</g>
			<g>
				<g>
					<rect x="0.001" y="28.674" fill="#FFFFFF" width="0.444" height="1.124"/>
					<rect x="0.001" y="27" fill="#FFFFFF" width="0.444" height="1.125"/>
					<rect x="0.001" y="25.325" fill="#FFFFFF" width="0.444" height="1.125"/>
					<rect x="0.001" y="23.65" fill="#FFFFFF" width="0.444" height="1.125"/>
					<rect x="0.001" y="21.976" fill="#FFFFFF" width="0.444" height="1.125"/>
					<rect x="0.001" y="20.301" fill="#FFFFFF" width="0.444" height="1.125"/>
					<rect x="0.001" y="18.627" fill="#FFFFFF" width="0.444" height="1.125"/>
				</g>
			</g>
			<g>
				<g>
					<rect x="0.001" y="16.952" fill="#FFFFFF" width="0.444" height="1.125"/>
					<rect x="0.001" y="15.278" fill="#FFFFFF" width="0.444" height="1.125"/>
					<rect x="0.001" y="13.604" fill="#FFFFFF" width="0.444" height="1.124"/>
					<path fill="#FFFFFF" d="M0.459,11.935l-0.444-0.011c0,0-0.021,0.288-0.014,0.567c0,0.281,0,0.562,0,0.562h0.444
						c0,0,0-0.281,0-0.562C0.439,12.208,0.459,11.935,0.459,11.935z"/>
					<path fill="#FFFFFF" d="M0.615,10.301l-0.438-0.072c0,0-0.043,0.283-0.086,0.566c-0.049,0.282-0.046,0.57-0.046,0.57
						l0.443,0.031c0,0-0.003-0.277,0.044-0.549C0.573,10.574,0.615,10.301,0.615,10.301z"/>
					<polygon fill="#FFFFFF" points="0.979,8.701 0.555,8.569 0.269,9.677 0.704,9.769 					"/>
					<path fill="#FFFFFF" d="M1.59,7.179L1.188,6.988c0,0-0.122,0.259-0.244,0.518C0.846,7.774,0.748,8.043,0.748,8.043l0.417,0.152
						c0,0,0.095-0.259,0.189-0.518C1.472,7.428,1.59,7.179,1.59,7.179z"/>
				</g>
			</g>
			<g>
				<g>
					<path fill="#FFFFFF" d="M2.388,5.745L2.018,5.5c0,0-0.149,0.245-0.297,0.489C1.57,6.233,1.432,6.483,1.432,6.483l0.392,0.209
						c0,0,0.133-0.241,0.278-0.476C2.245,5.98,2.388,5.745,2.388,5.745z"/>
					<path fill="#FFFFFF" d="M3.39,4.446L3.057,4.152c0,0-0.205,0.201-0.372,0.434C2.513,4.815,2.342,5.044,2.342,5.044l0.359,0.261
						c0,0,0.165-0.221,0.331-0.441C3.192,4.639,3.39,4.445,3.39,4.446z"/>
					<path fill="#FFFFFF" d="M4.555,3.29l-0.29-0.337c0,0-0.856,0.761-0.833,0.785l0.32,0.309C3.73,4.023,4.555,3.29,4.555,3.29z"/>
					<path fill="#FFFFFF" d="M5.872,2.311l-0.24-0.374C5.614,1.911,4.7,2.6,4.7,2.6l0.274,0.35C4.974,2.95,5.854,2.285,5.872,2.311z
						"/>
					<path fill="#FFFFFF" d="M7.312,1.525L7.126,1.121c0,0-1.031,0.498-1.016,0.525l0.223,0.384
						C6.318,2.004,7.312,1.525,7.312,1.525z"/>
					<path fill="#FFFFFF" d="M8.844,0.94L8.717,0.515c-0.008-0.026-1.079,0.38-1.079,0.38l0.167,0.412
						C7.805,1.307,8.836,0.915,8.844,0.94z"/>
					<path fill="#FFFFFF" d="M10.447,0.591L10.38,0.152c0,0-0.283,0.043-0.565,0.086c-0.28,0.059-0.556,0.136-0.556,0.136
						l0.107,0.431c0,0,0.266-0.074,0.535-0.132C10.174,0.633,10.447,0.591,10.447,0.591z"/>
				</g>
			</g>
			<g>
				<g>
					<polygon fill="#FFFFFF" points="12.082,0.451 12.077,0.007 10.935,0.068 10.98,0.51 					"/>
					<rect x="12.629" fill="#FFFFFF" width="1.125" height="0.444"/>
					<rect x="14.304" fill="#FFFFFF" width="1.124" height="0.444"/>
					<rect x="15.979" fill="#FFFFFF" width="1.124" height="0.444"/>
					<rect x="17.653" fill="#FFFFFF" width="1.124" height="0.444"/>
					<rect x="19.328" fill="#FFFFFF" width="1.124" height="0.444"/>
					<rect x="21.002" fill="#FFFFFF" width="1.124" height="0.444"/>
				</g>
			</g>
			<g>
				<g>
					<rect x="22.677" fill="#FFFFFF" width="1.125" height="0.444"/>
					<rect x="24.352" fill="#FFFFFF" width="1.124" height="0.444"/>
					<rect x="26.026" fill="#FFFFFF" width="1.125" height="0.444"/>
					<rect x="27.701" fill="#FFFFFF" width="1.124" height="0.444"/>
					<rect x="29.375" fill="#FFFFFF" width="1.125" height="0.444"/>
					<rect x="31.05" fill="#FFFFFF" width="1.125" height="0.444"/>
					<rect x="32.724" fill="#FFFFFF" width="1.124" height="0.444"/>
				</g>
			</g>
			<g>
				<g>
					<rect x="34.399" fill="#FFFFFF" width="1.124" height="0.444"/>
					<rect x="36.073" fill="#FFFFFF" width="1.125" height="0.444"/>
					<rect x="37.748" fill="#FFFFFF" width="1.125" height="0.444"/>
					<rect x="39.422" fill="#FFFFFF" width="1.125" height="0.444"/>
					<rect x="41.097" fill="#FFFFFF" width="1.125" height="0.444"/>
					<rect x="42.771" fill="#FFFFFF" width="1.125" height="0.444"/>
					<rect x="44.446" fill="#FFFFFF" width="1.125" height="0.444"/>
				</g>
			</g>
			<g>
				<g>
					<rect x="46.121" fill="#FFFFFF" width="1.125" height="0.444"/>
					<rect x="47.795" fill="#FFFFFF" width="1.125" height="0.444"/>
					<rect x="49.47" fill="#FFFFFF" width="1.124" height="0.444"/>
					<rect x="51.145" fill="#FFFFFF" width="1.124" height="0.444"/>
					<rect x="52.819" fill="#FFFFFF" width="1.124" height="0.444"/>
					<rect x="54.494" fill="#FFFFFF" width="1.124" height="0.444"/>
					<rect x="56.168" fill="#FFFFFF" width="1.124" height="0.444"/>
				</g>
			</g>
			<g>
				<g>
					<rect x="57.842" fill="#FFFFFF" width="1.125" height="0.444"/>
					<rect x="59.517" fill="#FFFFFF" width="1.125" height="0.444"/>
					<rect x="61.191" fill="#FFFFFF" width="1.125" height="0.444"/>
					<rect x="62.866" fill="#FFFFFF" width="1.124" height="0.444"/>
					<rect x="64.541" fill="#FFFFFF" width="1.125" height="0.444"/>
					<rect x="66.215" fill="#FFFFFF" width="1.125" height="0.444"/>
					<rect x="67.89" fill="#FFFFFF" width="1.124" height="0.444"/>
				</g>
			</g>
			<g>
				<g>
					<rect x="69.564" fill="#FFFFFF" width="1.125" height="0.444"/>
					<rect x="71.239" fill="#FFFFFF" width="1.125" height="0.444"/>
					<rect x="72.913" fill="#FFFFFF" width="1.125" height="0.444"/>
					<rect x="74.588" fill="#FFFFFF" width="1.125" height="0.444"/>
					<rect x="76.262" fill="#FFFFFF" width="1.125" height="0.444"/>
					<rect x="77.938" fill="#FFFFFF" width="1.124" height="0.444"/>
					<rect x="79.611" fill="#FFFFFF" width="1.125" height="0.444"/>
				</g>
			</g>
			<g>
				<g>
					<rect x="81.286" fill="#FFFFFF" width="1.125" height="0.444"/>
					<rect x="82.961" fill="#FFFFFF" width="1.124" height="0.444"/>
					<path fill="#FFFFFF" d="M85.725,0.552l0.057-0.441c0.003-0.032-1.14-0.089-1.14-0.09l-0.016,0.444
						C84.626,0.465,85.729,0.52,85.725,0.552z"/>
					<path fill="#FFFFFF" d="M87.333,0.875l0.118-0.429c0,0-0.277-0.071-0.554-0.142c-0.274-0.084-0.561-0.109-0.561-0.109
						l-0.077,0.438c0,0,0.276,0.023,0.541,0.104C87.067,0.806,87.333,0.875,87.333,0.875z"/>
					<path fill="#FFFFFF" d="M88.884,1.411l0.176-0.408c0,0-0.264-0.109-0.534-0.206C88.258,0.698,87.989,0.6,87.989,0.6
						l-0.137,0.423c0,0,0.259,0.095,0.518,0.189C88.629,1.305,88.884,1.411,88.884,1.411z"/>
					<path fill="#FFFFFF" d="M90.336,2.174l0.231-0.379c0,0-0.244-0.148-0.489-0.297c-0.257-0.126-0.514-0.252-0.514-0.252
						l-0.195,0.399c0,0,0.248,0.121,0.495,0.243C90.101,2.031,90.336,2.174,90.336,2.174z"/>
					<polygon fill="#FFFFFF" points="91.681,3.115 91.963,2.771 91.046,2.086 90.798,2.454 					"/>
				</g>
			</g>
			<g>
				<g>
					<path fill="#FFFFFF" d="M92.866,4.25l0.327-0.301c0,0-0.188-0.216-0.39-0.418c-0.211-0.192-0.423-0.385-0.423-0.385
						l-0.297,0.331c0,0,0.205,0.185,0.409,0.371C92.685,4.042,92.866,4.25,92.866,4.25z"/>
					<path fill="#FFFFFF" d="M93.897,5.527l0.365-0.253c0,0-0.171-0.229-0.343-0.458c-0.169-0.231-0.351-0.451-0.351-0.452
						l-0.34,0.286c0,0,0.175,0.212,0.338,0.435C93.732,5.306,93.897,5.527,93.897,5.527z"/>
					<path fill="#FFFFFF" d="M94.729,6.94l0.397-0.199c0,0-0.109-0.267-0.264-0.507c-0.148-0.245-0.297-0.489-0.297-0.489
						l-0.376,0.236c0,0,0.143,0.235,0.287,0.471C94.625,6.684,94.729,6.94,94.729,6.94z"/>
					<path fill="#FFFFFF" d="M95.363,8.454l0.421-0.142c0,0-0.384-1.079-0.415-1.065l-0.406,0.181
						C94.994,7.415,95.363,8.454,95.363,8.454z"/>
					<path fill="#FFFFFF" d="M95.779,10.04l0.437-0.082c0.034-0.007-0.265-1.113-0.265-1.113l-0.427,0.123
						C95.524,8.968,95.813,10.033,95.779,10.04z"/>
					<path fill="#FFFFFF" d="M95.96,11.671l0.444-0.021c0,0-0.015-0.286-0.029-0.571c-0.021-0.285-0.075-0.567-0.075-0.567
						l-0.44,0.062c0,0,0.053,0.271,0.072,0.546C95.946,11.396,95.96,11.671,95.96,11.671z"/>
					<rect x="95.988" y="12.21" fill="#FFFFFF" width="0.444" height="1.124"/>
				</g>
			</g>
			<g>
				<g>
					<rect x="95.988" y="13.885" fill="#FFFFFF" width="0.444" height="1.125"/>
					<rect x="95.988" y="15.559" fill="#FFFFFF" width="0.444" height="1.125"/>
					<rect x="95.988" y="17.233" fill="#FFFFFF" width="0.444" height="1.125"/>
					<rect x="95.988" y="18.909" fill="#FFFFFF" width="0.444" height="1.124"/>
					<rect x="95.988" y="20.583" fill="#FFFFFF" width="0.444" height="1.125"/>
					<rect x="95.988" y="22.258" fill="#FFFFFF" width="0.444" height="1.124"/>
					<rect x="95.988" y="23.932" fill="#FFFFFF" width="0.444" height="1.124"/>
				</g>
			</g>
			<g>
				<g>
					<rect x="95.988" y="25.606" fill="#FFFFFF" width="0.444" height="1.125"/>
					<rect x="95.988" y="27.281" fill="#FFFFFF" width="0.444" height="1.124"/>
					<rect x="95.988" y="28.956" fill="#FFFFFF" width="0.444" height="1.125"/>
					<rect x="95.988" y="30.63" fill="#FFFFFF" width="0.444" height="1.124"/>
					<rect x="95.988" y="32.305" fill="#FFFFFF" width="0.444" height="1.125"/>
					<rect x="95.988" y="33.979" fill="#FFFFFF" width="0.444" height="1.124"/>
					<rect x="95.988" y="35.654" fill="#FFFFFF" width="0.444" height="1.124"/>
				</g>
			</g>
			<g>
				<g>
					<rect x="95.988" y="37.329" fill="#FFFFFF" width="0.444" height="1.124"/>
					<rect x="95.988" y="39.003" fill="#FFFFFF" width="0.444" height="1.125"/>
					<rect x="95.988" y="40.677" fill="#FFFFFF" width="0.444" height="1.125"/>
					<rect x="95.988" y="42.352" fill="#FFFFFF" width="0.444" height="1.125"/>
					<rect x="95.988" y="44.026" fill="#FFFFFF" width="0.444" height="1.125"/>
					<rect x="95.988" y="45.701" fill="#FFFFFF" width="0.444" height="1.125"/>
					<rect x="95.988" y="47.375" fill="#FFFFFF" width="0.444" height="1.125"/>
				</g>
			</g>
			<g>
				<g>
					<rect x="95.988" y="49.05" fill="#FFFFFF" width="0.444" height="1.125"/>
					<rect x="95.988" y="50.725" fill="#FFFFFF" width="0.444" height="1.125"/>
					<rect x="95.988" y="52.399" fill="#FFFFFF" width="0.444" height="1.125"/>
					<rect x="95.988" y="54.074" fill="#FFFFFF" width="0.444" height="1.124"/>
					<rect x="95.988" y="55.749" fill="#FFFFFF" width="0.444" height="1.124"/>
					<rect x="95.988" y="57.423" fill="#FFFFFF" width="0.444" height="1.124"/>
					<rect x="95.988" y="59.098" fill="#FFFFFF" width="0.444" height="1.124"/>
				</g>
			</g>
			<g>
				<g>
					<rect x="95.988" y="60.772" fill="#FFFFFF" width="0.444" height="1.125"/>
					<rect x="95.988" y="62.447" fill="#FFFFFF" width="0.444" height="1.124"/>
					<rect x="95.988" y="64.121" fill="#FFFFFF" width="0.444" height="1.125"/>
					<rect x="95.988" y="65.796" fill="#FFFFFF" width="0.444" height="1.124"/>
					<rect x="95.988" y="67.47" fill="#FFFFFF" width="0.444" height="1.125"/>
					<rect x="95.988" y="69.145" fill="#FFFFFF" width="0.444" height="1.125"/>
					<rect x="95.988" y="70.819" fill="#FFFFFF" width="0.444" height="1.124"/>
				</g>
			</g>
			<g>
				<g>
					<rect x="95.988" y="72.494" fill="#FFFFFF" width="0.444" height="1.124"/>
					<rect x="95.988" y="74.168" fill="#FFFFFF" width="0.444" height="1.125"/>
					<rect x="95.988" y="75.843" fill="#FFFFFF" width="0.444" height="1.125"/>
					<rect x="95.988" y="77.518" fill="#FFFFFF" width="0.444" height="1.125"/>
					<rect x="95.988" y="79.192" fill="#FFFFFF" width="0.444" height="1.125"/>
					<rect x="95.988" y="80.867" fill="#FFFFFF" width="0.444" height="1.125"/>
					<rect x="95.988" y="82.541" fill="#FFFFFF" width="0.444" height="1.125"/>
				</g>
			</g>
		</g>
	</g>
</g>
<g opacity="0.5">
	<g>
		<g>
			<g>
				<g>
					<polygon fill="#FFFFFF" points="90.636,47.054 90.192,47.066 90.25,48.216 90.694,48.216 					"/>
					<polygon fill="#FFFFFF" points="90.549,45.324 90.105,45.354 90.164,46.503 90.607,46.485 					"/>
					<path fill="#FFFFFF" d="M90.433,43.596l-0.442,0.048c0.034-0.003,0.086,1.147,0.086,1.147l0.443-0.036
						C90.52,44.755,90.467,43.593,90.433,43.596z"/>
					<polygon fill="#FFFFFF" points="90.172,41.883 89.732,41.949 89.906,43.087 90.347,43.033 					"/>
					<polygon fill="#FFFFFF" points="89.91,40.17 89.474,40.254 89.647,41.393 90.086,41.321 					"/>
					<polygon fill="#FFFFFF" points="89.53,38.482 89.098,38.583 89.384,39.698 89.819,39.608 					"/>
					<polygon fill="#FFFFFF" points="89.099,36.804 88.671,36.923 88.957,38.038 89.388,37.931 					"/>
				</g>
			</g>
			<g>
				<g>
					<path fill="#FFFFFF" d="M88.622,35.14l-0.423,0.137c0,0,0.109,0.267,0.188,0.543c0.072,0.279,0.143,0.558,0.143,0.558
						l0.426-0.125c0,0-0.072-0.282-0.145-0.563C88.732,35.41,88.623,35.14,88.622,35.14z"/>
					<polygon fill="#FFFFFF" points="88.027,33.512 87.61,33.667 88.006,34.748 88.427,34.605 					"/>
					<polygon fill="#FFFFFF" points="87.431,31.885 87.021,32.057 87.417,33.138 87.831,32.978 					"/>
					<polygon fill="#FFFFFF" points="86.699,30.316 86.296,30.503 86.796,31.541 87.204,31.364 					"/>
					<polygon fill="#FFFFFF" points="85.947,28.755 85.552,28.959 86.052,29.996 86.452,29.803 					"/>
					<path fill="#FFFFFF" d="M85.122,27.233l-0.386,0.22c0,0,0.601,0.982,0.572,0.998l0.392-0.209
						C85.728,28.227,85.121,27.234,85.122,27.233z"/>
					<polygon fill="#FFFFFF" points="84.222,25.753 83.845,25.989 84.443,26.972 84.826,26.747 					"/>
				</g>
			</g>
			<g>
				<g>
					<path fill="#FFFFFF" d="M83.304,24.284l-0.367,0.251c0.028-0.019,0.615,0.972,0.615,0.972l0.374-0.241
						C83.926,25.266,83.332,24.265,83.304,24.284z"/>
					<polygon fill="#FFFFFF" points="82.267,22.896 81.911,23.162 82.6,24.084 82.963,23.828 					"/>
					<polygon fill="#FFFFFF" points="81.229,21.509 80.884,21.789 81.573,22.711 81.926,22.441 					"/>
					<polygon fill="#FFFFFF" points="80.093,20.203 79.759,20.497 80.533,21.348 80.875,21.064 					"/>
					<polygon fill="#FFFFFF" points="78.927,18.921 78.606,19.228 79.38,20.08 79.71,19.782 					"/>
					<path fill="#FFFFFF" d="M77.713,17.688l-0.309,0.319c0,0,0.213,0.194,0.426,0.387c0.213,0.193,0.397,0.416,0.397,0.416
						l0.317-0.311c0,0-0.186-0.225-0.401-0.42S77.713,17.688,77.713,17.688z"/>
					<polygon fill="#FFFFFF" points="76.431,16.523 76.135,16.854 76.987,17.629 77.292,17.305 					"/>
				</g>
			</g>
			<g>
				<g>
					<path fill="#FFFFFF" d="M75.141,15.366l-0.282,0.344c0,0,0.223,0.182,0.433,0.378c0.213,0.193,0.426,0.387,0.426,0.387
						l0.291-0.336c0,0-0.215-0.195-0.43-0.391C75.366,15.55,75.141,15.366,75.141,15.366z"/>
					<polygon fill="#FFFFFF" points="73.754,14.329 73.486,14.683 74.408,15.373 74.686,15.025 					"/>
					<polygon fill="#FFFFFF" points="72.366,13.291 72.113,13.656 73.035,14.346 73.298,13.988 					"/>
					<polygon fill="#FFFFFF" points="70.912,12.352 70.674,12.727 71.658,13.324 71.906,12.956 					"/>
					<polygon fill="#FFFFFF" points="69.432,11.452 69.209,11.836 70.193,12.435 70.426,12.056 					"/>
					<path fill="#FFFFFF" d="M67.922,10.604l-0.207,0.394c0,0,0.259,0.125,0.519,0.25c0.247,0.149,0.493,0.297,0.493,0.297
						l0.217-0.388c0,0-0.249-0.15-0.499-0.3C68.185,10.73,67.922,10.604,67.922,10.604z"/>
					<polygon fill="#FFFFFF" points="66.362,9.852 66.172,10.253 67.208,10.752 67.41,10.356 					"/>
				</g>
			</g>
			<g>
				<g>
					<polygon fill="#FFFFFF" points="64.801,9.1 64.627,9.509 65.664,10.009 65.849,9.604 					"/>
					<polygon fill="#FFFFFF" points="63.176,8.499 63.019,8.915 64.1,9.311 64.268,8.899 					"/>
					<polygon fill="#FFFFFF" points="61.549,7.904 61.409,8.326 62.49,8.721 62.641,8.303 					"/>
					<path fill="#FFFFFF" d="M59.892,7.401l-0.122,0.427c0,0,1.12,0.27,1.109,0.303l0.134-0.424
						C61.024,7.675,59.893,7.401,59.892,7.401z"/>
					<polygon fill="#FFFFFF" points="58.214,6.97 58.11,7.402 59.225,7.688 59.341,7.26 					"/>
					<path fill="#FFFFFF" d="M56.531,6.563l-0.086,0.436c0.007-0.034,1.12,0.263,1.12,0.263l0.099-0.433
						C57.663,6.828,56.538,6.529,56.531,6.563z"/>
					<polygon fill="#FFFFFF" points="54.818,6.301 54.75,6.74 55.888,6.914 55.968,6.477 					"/>
				</g>
			</g>
			<g>
				<g>
					<polygon fill="#FFFFFF" points="53.105,6.04 53.055,6.481 54.193,6.655 54.255,6.215 					"/>
					<polygon fill="#FFFFFF" points="51.38,5.897 51.348,6.34 52.498,6.398 52.542,5.956 					"/>
					<polygon fill="#FFFFFF" points="49.65,5.81 49.636,6.254 50.785,6.312 50.812,5.868 					"/>
					<path fill="#FFFFFF" d="M47.92,5.752l0.003,0.444c0-0.034,1.15,0.029,1.15,0.028l0.009-0.444
						C49.082,5.781,47.92,5.718,47.92,5.752z"/>
					<polygon fill="#FFFFFF" points="46.189,5.84 46.21,6.283 47.36,6.225 47.352,5.781 					"/>
					<polygon fill="#FFFFFF" points="44.459,5.927 44.498,6.37 45.647,6.312 45.621,5.868 					"/>
					<polygon fill="#FFFFFF" points="42.741,6.129 42.797,6.57 43.936,6.398 43.891,5.956 					"/>
				</g>
			</g>
			<g>
				<g>
					<polygon fill="#FFFFFF" points="41.027,6.391 41.103,6.829 42.24,6.655 42.178,6.215 					"/>
					<path fill="#FFFFFF" d="M39.322,6.687l0.093,0.435c0,0,0.275-0.09,0.562-0.121c0.285-0.043,0.569-0.086,0.569-0.086
						l-0.081-0.437c0,0-0.288,0.044-0.575,0.088C39.6,6.596,39.322,6.686,39.322,6.687z"/>
					<polygon fill="#FFFFFF" points="37.644,7.118 37.754,7.548 38.869,7.261 38.771,6.828 					"/>
					<polygon fill="#FFFFFF" points="35.965,7.549 36.093,7.975 37.208,7.688 37.092,7.26 					"/>
					<polygon fill="#FFFFFF" points="34.327,8.107 34.472,8.527 35.553,8.131 35.419,7.708 					"/>
					<polygon fill="#FFFFFF" points="32.699,8.703 32.862,9.117 33.943,8.721 33.792,8.303 					"/>
					<path fill="#FFFFFF" d="M31.098,9.357l0.179,0.406c0,0,0.259-0.125,0.519-0.25c0.265-0.111,0.538-0.204,0.538-0.204
						l-0.168-0.411c0,0-0.276,0.094-0.543,0.206C31.359,9.231,31.098,9.357,31.098,9.357z"/>
				</g>
			</g>
			<g>
				<g>
					<polygon fill="#FFFFFF" points="29.536,10.109 29.732,10.508 30.769,10.008 30.584,9.604 					"/>
					<polygon fill="#FFFFFF" points="27.975,10.861 28.187,11.252 29.225,10.752 29.023,10.356 					"/>
					<polygon fill="#FFFFFF" points="26.494,11.76 26.722,12.142 27.706,11.544 27.488,11.156 					"/>
					<polygon fill="#FFFFFF" points="25.013,12.66 25.256,13.032 26.24,12.435 26.007,12.056 					"/>
					<path fill="#FFFFFF" d="M23.591,13.646l0.258,0.362c0,0,0.23-0.172,0.461-0.345c0.231-0.172,0.465-0.339,0.465-0.339
						l-0.248-0.369c0,0-0.236,0.169-0.47,0.343C23.824,13.473,23.591,13.646,23.591,13.646z"/>
					<polygon fill="#FFFFFF" points="22.204,14.684 22.476,15.035 23.398,14.346 23.135,13.988 					"/>
					<path fill="#FFFFFF" d="M20.845,15.757l0.287,0.339c0,0,0.207-0.201,0.432-0.379c0.23-0.172,0.461-0.344,0.461-0.344
						l-0.277-0.347c0,0-0.233,0.174-0.466,0.348C21.054,15.553,20.845,15.757,20.845,15.757z"/>
				</g>
			</g>
			<g>
				<g>
					<polygon fill="#FFFFFF" points="19.563,16.922 19.863,17.25 20.715,16.476 20.424,16.14 					"/>
					<polygon fill="#FFFFFF" points="18.281,18.088 18.594,18.403 19.446,17.628 19.142,17.305 					"/>
					<polygon fill="#FFFFFF" points="17.106,19.36 17.432,19.663 18.206,18.811 17.889,18.5 					"/>
					<polygon fill="#FFFFFF" points="15.941,20.643 16.279,20.932 17.053,20.08 16.723,19.782 					"/>
					<path fill="#FFFFFF" d="M14.848,21.985l0.349,0.275c0,0,0.676-0.933,0.703-0.912l-0.342-0.284
						C15.532,21.042,14.848,21.984,14.848,21.985z"/>
					<polygon fill="#FFFFFF" points="13.811,23.373 14.17,23.633 14.86,22.711 14.507,22.441 					"/>
					<path fill="#FFFFFF" d="M12.802,24.78l0.371,0.245c0,0,0.037-0.061,0.093-0.153c0.052-0.095,0.132-0.214,0.222-0.327
						c0.172-0.23,0.345-0.46,0.345-0.46l-0.363-0.256c0,0-0.174,0.233-0.348,0.466c-0.091,0.114-0.172,0.235-0.225,0.33
						C12.84,24.717,12.802,24.78,12.802,24.78z"/>
				</g>
			</g>
			<g>
				<g>
					<polygon fill="#FFFFFF" points="11.902,26.261 12.283,26.491 12.88,25.507 12.507,25.266 					"/>
					<polygon fill="#FFFFFF" points="11.003,27.741 11.392,27.956 11.99,26.972 11.607,26.747 					"/>
					<polygon fill="#FFFFFF" points="10.229,29.29 10.626,29.488 11.125,28.451 10.733,28.242 					"/>
					<polygon fill="#FFFFFF" points="9.477,30.851 9.882,31.033 10.381,29.996 9.981,29.803 					"/>
					<path fill="#FFFFFF" d="M8.798,32.443l0.413,0.166c0,0,0.099-0.271,0.198-0.541c0.087-0.275,0.229-0.527,0.229-0.527
						l-0.408-0.177c0,0-0.144,0.255-0.231,0.533C8.898,32.17,8.798,32.443,8.798,32.443z"/>
					<polygon fill="#FFFFFF" points="8.202,34.07 8.621,34.218 9.017,33.138 8.602,32.978 					"/>
					<path fill="#FFFFFF" d="M7.618,35.701l0.425,0.131c-0.022-0.007,0.384-1.084,0.384-1.084l-0.421-0.142
						C8.006,34.605,7.596,35.694,7.618,35.701z"/>
				</g>
			</g>
			<g>
				<g>
					<polygon fill="#FFFFFF" points="7.187,37.379 7.616,37.492 7.903,36.377 7.477,36.252 					"/>
					<polygon fill="#FFFFFF" points="6.755,39.057 7.189,39.153 7.476,38.038 7.045,37.931 					"/>
					<polygon fill="#FFFFFF" points="6.433,40.758 6.871,40.835 7.049,39.698 6.614,39.608 					"/>
					<polygon fill="#FFFFFF" points="6.171,42.471 6.612,42.53 6.786,41.393 6.347,41.321 					"/>
					<path fill="#FFFFFF" d="M5.942,44.187l0.442,0.042c-0.033-0.003,0.143-1.141,0.143-1.141l-0.441-0.054
						C6.086,43.033,5.909,44.183,5.942,44.187z"/>
					<polygon fill="#FFFFFF" points="5.854,45.917 6.298,45.941 6.356,44.791 5.913,44.755 					"/>
					<polygon fill="#FFFFFF" points="5.767,47.647 6.211,47.653 6.27,46.503 5.826,46.485 					"/>
				</g>
			</g>
			<g>
				<g>
					<polygon fill="#FFFFFF" points="5.797,49.377 6.241,49.366 6.183,48.216 5.738,48.216 					"/>
					<polygon fill="#FFFFFF" points="5.884,51.108 6.328,51.078 6.27,49.928 5.826,49.946 					"/>
					<path fill="#FFFFFF" d="M6,52.835l0.442-0.048c-0.034,0.003-0.086-1.147-0.086-1.147l-0.443,0.036
						C5.913,51.676,5.966,52.839,6,52.835z"/>
					<polygon fill="#FFFFFF" points="6.261,54.548 6.701,54.482 6.527,53.345 6.086,53.398 					"/>
					<polygon fill="#FFFFFF" points="6.523,56.261 6.959,56.177 6.786,55.039 6.347,55.111 					"/>
					<polygon fill="#FFFFFF" points="6.903,57.95 7.335,57.848 7.049,56.733 6.614,56.823 					"/>
					<polygon fill="#FFFFFF" points="7.334,59.627 7.762,59.508 7.476,58.394 7.045,58.501 					"/>
				</g>
			</g>
			<g>
				<g>
					<path fill="#FFFFFF" d="M7.811,61.292l0.423-0.137c0,0-0.109-0.267-0.188-0.543c-0.072-0.279-0.143-0.558-0.143-0.558
						l-0.426,0.125c0,0,0.072,0.282,0.145,0.563C7.701,61.022,7.811,61.292,7.811,61.292z"/>
					<polygon fill="#FFFFFF" points="8.406,62.919 8.823,62.765 8.427,61.684 8.006,61.827 					"/>
					<polygon fill="#FFFFFF" points="9.002,64.546 9.412,64.375 9.017,63.294 8.602,63.454 					"/>
					<polygon fill="#FFFFFF" points="9.734,66.116 10.137,65.928 9.637,64.891 9.229,65.068 					"/>
					<polygon fill="#FFFFFF" points="10.486,67.677 10.881,67.473 10.381,66.436 9.981,66.628 					"/>
					<path fill="#FFFFFF" d="M11.312,69.198l0.386-0.22c0,0-0.601-0.982-0.572-0.998l-0.392,0.209
						C10.705,68.205,11.312,69.198,11.312,69.198z"/>
					<polygon fill="#FFFFFF" points="12.211,70.679 12.588,70.443 11.99,69.459 11.607,69.685 					"/>
				</g>
			</g>
			<g>
				<g>
					<path fill="#FFFFFF" d="M13.129,72.147l0.367-0.251c-0.028,0.019-0.615-0.972-0.615-0.972l-0.374,0.241
						C12.507,71.166,13.101,72.167,13.129,72.147z"/>
					<polygon fill="#FFFFFF" points="14.167,73.535 14.522,73.27 13.833,72.348 13.47,72.604 					"/>
					<polygon fill="#FFFFFF" points="15.204,74.922 15.549,74.643 14.86,73.721 14.507,73.991 					"/>
					<polygon fill="#FFFFFF" points="16.34,76.229 16.674,75.935 15.9,75.083 15.558,75.368 					"/>
					<polygon fill="#FFFFFF" points="17.506,77.511 17.827,77.204 17.053,76.352 16.723,76.65 					"/>
					<path fill="#FFFFFF" d="M18.72,78.744l0.309-0.319c0,0-0.213-0.194-0.426-0.387c-0.213-0.193-0.397-0.416-0.397-0.416
						l-0.317,0.311c0,0,0.186,0.225,0.401,0.42C18.505,78.548,18.72,78.744,18.72,78.744z"/>
					<polygon fill="#FFFFFF" points="20.002,79.909 20.298,79.577 19.446,78.803 19.142,79.126 					"/>
				</g>
			</g>
			<g>
				<g>
					<path fill="#FFFFFF" d="M21.292,81.065l0.282-0.343c0,0-0.223-0.182-0.433-0.379c-0.213-0.193-0.426-0.387-0.426-0.387
						l-0.291,0.336c0,0,0.215,0.195,0.43,0.391C21.067,80.881,21.292,81.065,21.292,81.065z"/>
					<polygon fill="#FFFFFF" points="22.679,82.103 22.947,81.749 22.025,81.059 21.748,81.406 					"/>
					<polygon fill="#FFFFFF" points="24.067,83.141 24.32,82.775 23.398,82.086 23.135,82.444 					"/>
					<polygon fill="#FFFFFF" points="25.521,84.08 25.759,83.705 24.775,83.107 24.527,83.476 					"/>
					<polygon fill="#FFFFFF" points="27.001,84.979 27.224,84.595 26.24,83.997 26.007,84.375 					"/>
					<path fill="#FFFFFF" d="M28.51,85.828l0.207-0.394c0,0-0.259-0.125-0.519-0.25c-0.246-0.148-0.493-0.297-0.493-0.297
						l-0.217,0.388c0,0,0.249,0.15,0.498,0.3C28.249,85.702,28.51,85.828,28.51,85.828z"/>
					<polygon fill="#FFFFFF" points="30.071,86.58 30.261,86.179 29.225,85.679 29.023,86.075 					"/>
				</g>
			</g>
			<g>
				<g>
					<polygon fill="#FFFFFF" points="31.632,87.332 31.806,86.923 30.769,86.423 30.584,86.827 					"/>
					<polygon fill="#FFFFFF" points="33.257,87.933 33.414,87.517 32.333,87.122 32.165,87.533 					"/>
					<polygon fill="#FFFFFF" points="34.884,88.528 35.024,88.106 33.943,87.71 33.792,88.128 					"/>
					<path fill="#FFFFFF" d="M36.541,89.03l0.122-0.427c0,0-1.12-0.27-1.109-0.303l-0.134,0.424
						C35.409,88.757,36.541,89.031,36.541,89.03z"/>
					<polygon fill="#FFFFFF" points="38.219,89.462 38.323,89.03 37.208,88.743 37.092,89.172 					"/>
					<path fill="#FFFFFF" d="M39.902,89.869l0.086-0.436c-0.007,0.034-1.12-0.263-1.12-0.263l-0.099,0.433
						C38.771,89.604,39.895,89.903,39.902,89.869z"/>
					<polygon fill="#FFFFFF" points="41.615,90.13 41.683,89.691 40.545,89.518 40.465,89.955 					"/>
				</g>
			</g>
			<g>
				<g>
					<polygon fill="#FFFFFF" points="43.328,90.392 43.378,89.95 42.24,89.776 42.178,90.216 					"/>
					<polygon fill="#FFFFFF" points="45.053,90.535 45.085,90.091 43.936,90.034 43.891,90.476 					"/>
					<polygon fill="#FFFFFF" points="46.783,90.622 46.797,90.178 45.647,90.12 45.621,90.563 					"/>
					<path fill="#FFFFFF" d="M48.513,90.679l-0.003-0.444c0,0.034-1.15-0.029-1.15-0.028l-0.009,0.444
						C47.352,90.65,48.513,90.713,48.513,90.679z"/>
					<polygon fill="#FFFFFF" points="50.244,90.592 50.223,90.148 49.073,90.207 49.082,90.65 					"/>
					<polygon fill="#FFFFFF" points="51.974,90.504 51.935,90.062 50.785,90.12 50.812,90.563 					"/>
					<polygon fill="#FFFFFF" points="53.692,90.302 53.636,89.861 52.498,90.034 52.542,90.476 					"/>
				</g>
			</g>
			<g>
				<g>
					<polygon fill="#FFFFFF" points="55.405,90.041 55.331,89.603 54.193,89.776 54.255,90.216 					"/>
					<path fill="#FFFFFF" d="M57.111,89.745l-0.093-0.435c0,0-0.275,0.09-0.562,0.121c-0.285,0.043-0.569,0.086-0.569,0.086
						l0.081,0.437c0,0,0.288-0.044,0.575-0.088C56.833,89.835,57.111,89.746,57.111,89.745z"/>
					<polygon fill="#FFFFFF" points="58.79,89.314 58.679,88.883 57.564,89.17 57.663,89.604 					"/>
					<polygon fill="#FFFFFF" points="60.468,88.882 60.339,88.457 59.225,88.743 59.341,89.172 					"/>
					<polygon fill="#FFFFFF" points="62.106,88.324 61.961,87.904 60.88,88.3 61.014,88.724 					"/>
					<polygon fill="#FFFFFF" points="63.734,87.729 63.571,87.315 62.49,87.71 62.641,88.128 					"/>
					<path fill="#FFFFFF" d="M65.335,87.074l-0.179-0.406c0,0-0.259,0.125-0.519,0.25c-0.265,0.111-0.538,0.204-0.538,0.204
						l0.168,0.411c0,0,0.275-0.094,0.543-0.206C65.074,87.2,65.335,87.074,65.335,87.074z"/>
				</g>
			</g>
			<g>
				<g>
					<polygon fill="#FFFFFF" points="66.897,86.322 66.701,85.923 65.664,86.423 65.849,86.827 					"/>
					<polygon fill="#FFFFFF" points="68.458,85.57 68.246,85.18 67.208,85.679 67.41,86.075 					"/>
					<polygon fill="#FFFFFF" points="69.939,84.671 69.711,84.29 68.728,84.888 68.945,85.275 					"/>
					<polygon fill="#FFFFFF" points="71.42,83.771 71.177,83.4 70.193,83.997 70.426,84.375 					"/>
					<path fill="#FFFFFF" d="M72.842,82.785l-0.258-0.362c0,0-0.23,0.172-0.461,0.345s-0.464,0.339-0.464,0.339l0.248,0.369
						c0,0,0.236-0.169,0.47-0.343C72.609,82.959,72.842,82.785,72.842,82.785z"/>
					<polygon fill="#FFFFFF" points="74.229,81.747 73.957,81.396 73.035,82.086 73.298,82.444 					"/>
					<path fill="#FFFFFF" d="M75.588,80.675l-0.287-0.339c0,0-0.207,0.201-0.432,0.379c-0.23,0.172-0.461,0.344-0.461,0.344
						l0.277,0.347c0,0,0.233-0.174,0.466-0.348C75.379,80.878,75.588,80.675,75.588,80.675z"/>
				</g>
			</g>
			<g>
				<g>
					<polygon fill="#FFFFFF" points="76.87,79.509 76.57,79.182 75.718,79.956 76.009,80.292 					"/>
					<polygon fill="#FFFFFF" points="78.152,78.344 77.839,78.029 76.987,78.803 77.292,79.126 					"/>
					<polygon fill="#FFFFFF" points="79.327,77.071 79.001,76.769 78.227,77.621 78.544,77.932 					"/>
					<polygon fill="#FFFFFF" points="80.492,75.789 80.154,75.5 79.38,76.352 79.71,76.65 					"/>
					<path fill="#FFFFFF" d="M81.585,74.447l-0.349-0.275c0,0-0.676,0.933-0.703,0.912l0.342,0.284
						C80.901,75.389,81.585,74.447,81.585,74.447z"/>
					<polygon fill="#FFFFFF" points="82.623,73.059 82.263,72.799 81.573,73.721 81.926,73.991 					"/>
					<path fill="#FFFFFF" d="M83.63,71.652l-0.37-0.245c0,0-0.037,0.061-0.093,0.153c-0.052,0.095-0.132,0.214-0.222,0.327
						c-0.172,0.23-0.345,0.46-0.345,0.46l0.363,0.256c0,0,0.174-0.233,0.348-0.466c0.091-0.114,0.172-0.235,0.225-0.33
						C83.593,71.714,83.63,71.652,83.63,71.652z"/>
				</g>
			</g>
			<g>
				<g>
					<polygon fill="#FFFFFF" points="84.531,70.171 84.15,69.941 83.553,70.925 83.926,71.166 					"/>
					<polygon fill="#FFFFFF" points="85.43,68.69 85.041,68.476 84.443,69.459 84.826,69.685 					"/>
					<polygon fill="#FFFFFF" points="86.205,67.142 85.807,66.943 85.308,67.98 85.7,68.19 					"/>
					<polygon fill="#FFFFFF" points="86.957,65.581 86.551,65.398 86.052,66.436 86.452,66.628 					"/>
					<path fill="#FFFFFF" d="M87.635,63.989l-0.413-0.166c0,0-0.099,0.271-0.198,0.541c-0.087,0.275-0.229,0.527-0.229,0.527
						l0.408,0.177c0,0,0.144-0.255,0.231-0.533C87.535,64.262,87.635,63.989,87.635,63.989z"/>
					<polygon fill="#FFFFFF" points="88.231,62.361 87.812,62.213 87.417,63.294 87.831,63.454 					"/>
					<path fill="#FFFFFF" d="M88.815,60.731L88.39,60.6c0.022,0.007-0.384,1.084-0.384,1.084l0.421,0.142
						C88.427,61.827,88.837,60.738,88.815,60.731z"/>
				</g>
			</g>
			<g>
				<g>
					<polygon fill="#FFFFFF" points="89.247,59.052 88.817,58.939 88.53,60.054 88.957,60.179 					"/>
					<polygon fill="#FFFFFF" points="89.678,57.375 89.244,57.279 88.957,58.394 89.388,58.501 					"/>
					<polygon fill="#FFFFFF" points="90,55.674 89.563,55.596 89.384,56.733 89.819,56.823 					"/>
					<polygon fill="#FFFFFF" points="90.262,53.961 89.821,53.901 89.647,55.039 90.086,55.111 					"/>
					<path fill="#FFFFFF" d="M90.491,52.245l-0.442-0.042c0.033,0.003-0.143,1.141-0.143,1.141l0.441,0.054
						C90.347,53.398,90.524,52.249,90.491,52.245z"/>
					<polygon fill="#FFFFFF" points="90.579,50.515 90.135,50.491 90.077,51.641 90.52,51.676 					"/>
					<polygon fill="#FFFFFF" points="90.666,48.785 90.222,48.779 90.164,49.928 90.607,49.946 					"/>
				</g>
			</g>
		</g>
	</g>
</g>
<g>
	<path fill="#FFFFFF" d="M25.618,51.669h1.319v6.012h8.223v-6.012h1.319v13.847h-1.319v-6.71h-8.223v6.71h-1.319V51.669z"/>
	<path fill="#FFFFFF" d="M42.636,51.669h1.474l5.43,13.847h-1.416l-1.687-4.306h-6.303l-1.668,4.306H37.05L42.636,51.669z
		 M40.541,60.086h5.45l-2.676-7.098L40.541,60.086z"/>
	<path fill="#FFFFFF" d="M49.598,51.669h1.552l3.917,5.799l4.053-5.799h1.474l-4.732,6.749l5.004,7.098h-1.59l-4.208-6.109
		l-4.267,6.109h-1.494l4.984-7.137L49.598,51.669z"/>
	<path fill="#FFFFFF" d="M61.398,51.669h9.561v1.125h-8.242v5.003h7.719v1.125h-7.719v5.469h8.339v1.125h-9.658V51.669z"/>
</g>
<g>
	<path fill="#FFFFFF" d="M32.561,78.685h-0.862v-1.457h-0.03c-0.401,0.996-1.62,1.679-2.735,1.679c-2.333,0-3.448-1.887-3.448-4.057
		s1.114-4.057,3.448-4.057c1.145,0,2.259,0.58,2.66,1.679h0.03v-4.399h0.937V78.685z M28.934,78.12c1.992,0,2.69-1.68,2.69-3.27
		s-0.698-3.27-2.69-3.27c-1.783,0-2.512,1.679-2.512,3.27S27.151,78.12,28.934,78.12z"/>
	<path fill="#FFFFFF" d="M34.356,75.103c0.015,1.367,0.729,3.017,2.527,3.017c1.367,0,2.11-0.803,2.408-1.962h0.936
		c-0.401,1.738-1.412,2.749-3.344,2.749c-2.438,0-3.463-1.873-3.463-4.057c0-2.021,1.025-4.057,3.463-4.057
		c2.467,0,3.448,2.155,3.374,4.31H34.356z M39.321,74.315c-0.045-1.412-0.922-2.734-2.438-2.734c-1.531,0-2.378,1.337-2.527,2.734
		H39.321z"/>
	<path fill="#FFFFFF" d="M39.951,71.016h1.04l2.408,6.732h0.03l2.378-6.732h0.966l-2.869,7.669h-0.996L39.951,71.016z"/>
	<path fill="#FFFFFF" d="M47.469,75.103c0.015,1.367,0.729,3.017,2.527,3.017c1.367,0,2.11-0.803,2.408-1.962h0.936
		c-0.401,1.738-1.412,2.749-3.344,2.749c-2.438,0-3.463-1.873-3.463-4.057c0-2.021,1.025-4.057,3.463-4.057
		c2.467,0,3.448,2.155,3.374,4.31H47.469z M52.434,74.315c-0.045-1.412-0.922-2.734-2.438-2.734c-1.531,0-2.378,1.337-2.527,2.734
		H52.434z"/>
	<path fill="#FFFFFF" d="M54.154,68.073h0.936v10.611h-0.936V68.073z"/>
	<path fill="#FFFFFF" d="M63.183,74.85c0,2.2-1.278,4.057-3.626,4.057c-2.349,0-3.626-1.857-3.626-4.057s1.278-4.057,3.626-4.057
		C61.905,70.793,63.183,72.65,63.183,74.85z M56.867,74.85c0,1.635,0.892,3.27,2.69,3.27s2.69-1.635,2.69-3.27
		s-0.892-3.27-2.69-3.27S56.867,73.215,56.867,74.85z"/>
	<path fill="#FFFFFF" d="M64.021,71.016h0.862v1.457h0.03c0.431-1.041,1.501-1.679,2.734-1.679c2.333,0,3.448,1.887,3.448,4.057
		s-1.115,4.057-3.448,4.057c-1.145,0-2.259-0.579-2.66-1.679h-0.03v4.295h-0.937V71.016z M67.647,71.581
		c-2.066,0-2.69,1.531-2.69,3.27c0,1.59,0.698,3.27,2.69,3.27c1.783,0,2.512-1.68,2.512-3.27S69.43,71.581,67.647,71.581z"/>
</g>
<g>
	<g>
		<path fill="#FFFFFF" d="M25.681,47.44c-0.072,0-0.138-0.039-0.174-0.101c-0.036-0.062-0.035-0.139,0.001-0.201l7.415-22.37
			L47.997,9.664c0.039-0.038,0.09-0.059,0.142-0.059c0.026,0,0.052,0.005,0.077,0.016c0.043,0.018,0.079,0.05,0.1,0.09L63.3,24.696
			l7.473,22.468c0.036,0.062,0.035,0.131-0.001,0.193s-0.104,0.093-0.175,0.093L25.681,47.44z M69.19,46.455L48.133,11.359
			L27.087,46.443L69.19,46.455z M33.777,25.295L27.786,43.34l18.076-30.13L33.777,25.295z M68.479,43.332l-6.032-18.11
			L50.402,13.204L68.479,43.332z"/>
	</g>
	<rect x="34.217" y="38.806" fill="#FFFFFF" width="15.596" height="1"/>
	<rect x="52.479" y="38.806" fill="#FFFFFF" width="9.653" height="1"/>
	<rect x="32.281" y="42.806" fill="#FFFFFF" width="8.116" height="1"/>
	<rect x="43.181" y="42.806" fill="#FFFFFF" width="13.172" height="1"/>
	<rect x="58.9" y="42.806" fill="#FFFFFF" width="5.424" height="1"/>
</g>
<g>
</g>
<g>
</g>
<g>
</g>
<g>
</g>
<g>
</g>
<g>
</g>
</svg>
