<?xml version="1.0" encoding="utf-8"?>
<!-- Generator: Adobe Illustrator 16.0.0, SVG Export Plug-In . SVG Version: 6.00 Build 0)  -->
<!DOCTYPE svg PUBLIC "-//W3C//DTD SVG 1.1//EN" "http://www.w3.org/Graphics/SVG/1.1/DTD/svg11.dtd">
<svg version="1.1" id="Layer_1" xmlns="http://www.w3.org/2000/svg" xmlns:xlink="http://www.w3.org/1999/xlink" x="0px" y="0px"
	 width="260.203px" height="54.3px" viewBox="3.684 0 260.203 54.3" enable-background="new 3.684 0 260.203 54.3"
	 xml:space="preserve">
<g id="Layer_2">
</g>
<g id="Layer_1_1_">
</g>
<g id="Layer_3">
	<g>
		<path fill="#FFFFFF" d="M22.102,44.871V31.097H5.666v13.773H3.684V16.163h1.982v13.133h16.436V16.163h1.962v28.708H22.102z"/>
		<path fill="#FFFFFF" d="M40.863,44.871v-4.104h-0.08c-0.654,1.401-1.605,2.52-2.853,3.353c-1.249,0.834-2.633,1.251-4.154,1.251
			c-1.949,0-3.49-0.547-4.625-1.641c-1.135-1.094-1.702-2.476-1.702-4.144c0-3.577,2.369-5.739,7.107-6.486l6.306-0.941
			c0-4.404-1.655-6.606-4.965-6.606c-2.256,0-4.451,0.908-6.586,2.723v-2.222c0.761-0.601,1.792-1.114,3.093-1.542
			c1.301-0.427,2.525-0.641,3.673-0.641c2.108,0,3.74,0.654,4.895,1.962c1.154,1.308,1.731,3.21,1.731,5.706v13.333H40.863
			L40.863,44.871z M35.218,34.661c-2.149,0.307-3.657,0.804-4.524,1.491c-0.868,0.688-1.301,1.806-1.301,3.354
			c0,1.215,0.403,2.216,1.211,3.003c0.807,0.788,1.932,1.181,3.373,1.181c1.975,0,3.617-0.731,4.925-2.192
			c1.308-1.462,1.962-3.347,1.962-5.656V33.84L35.218,34.661z"/>
		<path fill="#FFFFFF" d="M53.397,34.821l6.687,10.05h-2.342l-5.405-8.648h-0.08l-0.721,1.141c-0.094,0.16-0.207,0.34-0.34,0.541
			l-4.524,6.967h-2.242l6.847-10.01l-6.727-10.49h2.162l4.564,7.347c0.587,0.948,0.941,1.535,1.061,1.762h0.08l1.021-1.682
			l4.765-7.427h2.162L53.397,34.821z"/>
		<path fill="#FFFFFF" d="M62.21,34.701c0,2.816,0.65,5.019,1.952,6.606c1.301,1.588,3.086,2.382,5.355,2.382
			c2.295,0,4.538-0.847,6.727-2.542v1.962c-2.122,1.508-4.491,2.262-7.107,2.262c-2.643,0-4.778-0.947-6.406-2.842
			c-1.628-1.895-2.442-4.571-2.442-8.028c0-2.989,0.851-5.508,2.553-7.558c1.701-2.048,3.914-3.073,6.636-3.073
			c2.549,0,4.504,0.895,5.866,2.683c1.361,1.789,2.042,4.231,2.042,7.327v0.821H62.21L62.21,34.701z M75.463,33.019
			c-0.08-2.362-0.647-4.197-1.702-5.505c-1.055-1.308-2.509-1.962-4.364-1.962c-1.922,0-3.513,0.644-4.775,1.932
			c-1.261,1.288-2.039,3.133-2.332,5.535H75.463z"/>
		<path fill="#FFFFFF" d="M140.211,44.871V16.163h7.188c4.764,0,8.388,1.188,10.87,3.563c2.482,2.376,3.724,5.839,3.724,10.39
			c0,4.378-1.331,7.931-3.994,10.661c-2.662,2.729-6.336,4.094-11.021,4.094H140.211z M142.193,17.984v25.084h4.504
			c4.258,0,7.527-1.104,9.81-3.313c2.282-2.208,3.423-5.395,3.423-9.559c0-8.141-4.277-12.212-12.832-12.212H142.193z"/>
		<path fill="#FFFFFF" d="M166.065,34.701c0,2.816,0.65,5.019,1.952,6.606c1.301,1.588,3.086,2.382,5.355,2.382
			c2.295,0,4.537-0.847,6.727-2.542v1.962c-2.123,1.508-4.492,2.262-7.107,2.262c-2.643,0-4.778-0.947-6.406-2.842
			c-1.629-1.895-2.442-4.571-2.442-8.028c0-2.989,0.851-5.508,2.553-7.558c1.701-2.048,3.913-3.073,6.636-3.073
			c2.55,0,4.505,0.895,5.866,2.683c1.361,1.789,2.042,4.231,2.042,7.327v0.821H166.065L166.065,34.701z M179.318,33.019
			c-0.08-2.362-0.647-4.197-1.701-5.505c-1.055-1.308-2.51-1.962-4.365-1.962c-1.922,0-3.513,0.644-4.774,1.932
			c-1.261,1.288-2.039,3.133-2.332,5.535H179.318z"/>
		<path fill="#FFFFFF" d="M190.785,44.871h-1.682l-7.928-20.5h2.063l6.105,16.316c0.293,0.788,0.5,1.501,0.621,2.142h0.08
			c0.173-0.841,0.366-1.528,0.58-2.062l6.307-16.396h2.002L190.785,44.871z"/>
		<path fill="#FFFFFF" d="M200.567,34.701c0,2.816,0.65,5.019,1.952,6.606c1.301,1.588,3.086,2.382,5.355,2.382
			c2.295,0,4.537-0.847,6.727-2.542v1.962c-2.123,1.508-4.492,2.262-7.107,2.262c-2.643,0-4.778-0.947-6.406-2.842
			c-1.629-1.895-2.442-4.571-2.442-8.028c0-2.989,0.851-5.508,2.553-7.558c1.701-2.048,3.913-3.073,6.636-3.073
			c2.55,0,4.505,0.895,5.866,2.683c1.361,1.789,2.042,4.231,2.042,7.327v0.821H200.567L200.567,34.701z M213.82,33.019
			c-0.08-2.362-0.647-4.197-1.701-5.505c-1.055-1.308-2.51-1.962-4.365-1.962c-1.922,0-3.513,0.644-4.774,1.932
			c-1.261,1.288-2.039,3.133-2.332,5.535H213.82z"/>
		<path fill="#FFFFFF" d="M218.732,44.871v-30.35h1.842v30.35H218.732z"/>
		<path fill="#FFFFFF" d="M233.29,45.371c-2.99,0-5.355-0.983-7.098-2.952c-1.741-1.969-2.612-4.528-2.612-7.678
			c0-3.403,0.911-6.066,2.732-7.988c1.822-1.922,4.221-2.883,7.197-2.883c2.923,0,5.231,0.955,6.927,2.863
			c1.694,1.909,2.543,4.551,2.543,7.928c0,3.19-0.865,5.772-2.593,7.748C238.658,44.384,236.292,45.371,233.29,45.371z
			 M233.43,25.552c-2.416,0-4.341,0.814-5.775,2.442c-1.436,1.628-2.152,3.891-2.152,6.787c0,2.683,0.7,4.838,2.103,6.466
			c1.4,1.628,3.315,2.442,5.745,2.442c2.469,0,4.371-0.801,5.706-2.402c1.334-1.602,2.002-3.824,2.002-6.667
			c0-2.923-0.665-5.165-1.992-6.727C237.737,26.333,235.858,25.552,233.43,25.552z"/>
		<path fill="#FFFFFF" d="M247.932,41.227h-0.08V54.3h-1.842v-29.93h1.842v4.224h0.08c0.733-1.508,1.785-2.672,3.153-3.494
			c1.367-0.82,2.872-1.231,4.515-1.231c2.602,0,4.634,0.898,6.096,2.693c1.461,1.795,2.191,4.234,2.191,7.317
			c0,3.43-0.837,6.203-2.512,8.318c-1.676,2.116-3.888,3.173-6.637,3.173C251.668,45.371,249.399,43.99,247.932,41.227z
			 M247.852,33.6v2.583c0,2.056,0.647,3.821,1.941,5.295c1.295,1.475,2.996,2.212,5.105,2.212c2.095,0,3.797-0.897,5.105-2.693
			c1.308-1.794,1.961-4.154,1.961-7.077c0-2.563-0.6-4.598-1.801-6.106c-1.201-1.508-2.803-2.262-4.805-2.262
			c-2.39,0-4.238,0.801-5.546,2.402C248.505,29.556,247.852,31.438,247.852,33.6z"/>
	</g>
	<g>
		<g>
			<path fill="#FFFFFF" d="M82.113,44.533c-0.088,0-0.17-0.046-0.215-0.123c-0.045-0.076-0.047-0.17-0.004-0.247l8.676-26.172
				c0.012-0.037,0.033-0.071,0.061-0.098l17.576-17.575c0.048-0.048,0.112-0.073,0.177-0.073c0.032,0,0.065,0.006,0.096,0.019
				c0.054,0.022,0.097,0.062,0.124,0.111L126.127,17.9c0.027,0.027,0.048,0.061,0.061,0.098l8.685,26.19
				c0.046,0.077,0.045,0.163,0.001,0.24c-0.045,0.079-0.131,0.116-0.221,0.116L82.113,44.533z M132.978,43.348L108.375,2.344
				l-24.588,40.99L132.978,43.348z M84.642,39.58l20.995-35L91.636,18.582L84.642,39.58z M132.113,39.579l-6.991-20.99
				L111.115,4.582L132.113,39.579z"/>
			<path fill="#FFFFFF" d="M108.382,0.495v0.014l17.568,17.568l8.685,26.19l0.018,0.028l-52.54-0.012l0.006-0.011l8.688-26.203
				L108.382,0.495 M133.419,43.598l-25.044-41.74l-25.03,41.726L133.419,43.598 M83.685,41.66l23.21-38.691L91.417,18.446
				L83.685,41.66 M133.068,41.658l-7.728-23.204L109.856,2.969L133.068,41.658 M108.374,0c-0.127,0-0.251,0.047-0.345,0.141
				L90.453,17.716c-0.055,0.055-0.097,0.122-0.121,0.196l-8.685,26.194c-0.049,0.139-0.038,0.298,0.039,0.426
				c0.09,0.151,0.25,0.25,0.427,0.25l52.54,0.012c0.18,0,0.346-0.097,0.436-0.254c0.084-0.15,0.086-0.332,0.005-0.482l-8.668-26.14
				c-0.024-0.074-0.066-0.141-0.121-0.196L108.773,0.192c-0.052-0.066-0.12-0.12-0.199-0.153C108.509,0.013,108.441,0,108.374,0
				L108.374,0z M84.228,43.084L108.375,2.83l24.161,40.268L84.228,43.084L84.228,43.084z M91.854,18.716l12.524-12.523L85.598,37.5
				L91.854,18.716L91.854,18.716z M131.157,37.5L112.374,6.195l12.53,12.529L131.157,37.5L131.157,37.5z"/>
		</g>
		<rect x="93.518" y="34.414" fill="#F6871F" width="16.458" height="1.813"/>
		<rect x="112.79" y="34.414" fill="#F6871F" width="10.187" height="1.813"/>
		<rect x="91.476" y="38.436" fill="#F6871F" width="8.563" height="1.813"/>
		<rect x="102.852" y="38.436" fill="#F6871F" width="13.9" height="1.813"/>
		<rect x="119.566" y="38.436" fill="#F6871F" width="5.723" height="1.813"/>
	</g>
</g>
</svg>
